<?xml version="1.0" encoding="utf-8"?>
<!-- Generator: Adobe Illustrator 16.0.0, SVG Export Plug-In . SVG Version: 6.00 Build 0)  -->
<!DOCTYPE svg PUBLIC "-//W3C//DTD SVG 1.1//EN" "http://www.w3.org/Graphics/SVG/1.1/DTD/svg11.dtd">
<svg version="1.1" id="SHAPES__x2B__PATTERNS" xmlns="http://www.w3.org/2000/svg" xmlns:xlink="http://www.w3.org/1999/xlink"
	 x="0px" y="0px" width="178.036px" height="178.015px" viewBox="0 0 178.036 178.015" enable-background="new 0 0 178.036 178.015"
	 xml:space="preserve">
<g>
	<circle display="none" fill="#949183" cx="89.018" cy="89.019" r="89.018"/>
	<g>
		<path fill="#E68419" d="M174.14,62.76l2.629,10.981C176.121,69.996,175.241,66.33,174.14,62.76z"/>
		<path fill="#E68419" d="M176.769,73.741L174.14,62.76c-1.249-4.052-2.783-7.979-4.573-11.761l8.409,33.74
			C177.799,81.008,177.392,77.338,176.769,73.741z"/>
		<path fill="#E68419" d="M177.887,94.825l-14-54.038c-0.956-1.479-1.956-2.927-2.996-4.345l16.688,62.041
			C177.708,97.271,177.808,96.052,177.887,94.825z"/>
		<path fill="#E68419" d="M176.731,104.533l-20.678-74.125c-0.903-1.031-1.828-2.042-2.777-3.029l22.997,79.578
			C176.438,106.153,176.588,105.345,176.731,104.533z"/>
		<path fill="#E68419" d="M175.211,111.516L148.73,22.968c-0.873-0.789-1.763-1.56-2.667-2.314l28.655,92.682
			C174.89,112.73,175.053,112.124,175.211,111.516z"/>
		<path fill="#E68419" d="M173.574,117.048l-31.878-99.814c-0.852-0.625-1.714-1.238-2.589-1.834l33.977,103.08
			C173.25,118.004,173.415,117.527,173.574,117.048z"/>
		<path fill="#E68419" d="M171.909,121.653L134.868,12.687c-0.832-0.5-1.673-0.985-2.522-1.459l39.089,111.587
			C171.594,122.428,171.756,122.043,171.909,121.653z"/>
		<path fill="#E68419" d="M170.251,125.576L128.22,9.066c-0.815-0.399-1.634-0.791-2.463-1.167l44.047,118.64
			C169.954,126.219,170.106,125.899,170.251,125.576z"/>
		<path fill="#E68419" d="M168.621,128.985L121.732,6.194c-0.792-0.313-1.592-0.611-2.396-0.901l48.871,124.508
			C168.347,129.53,168.484,129.258,168.621,128.985z"/>
		<path fill="#E68419" d="M167.035,131.992L115.411,3.975c-0.774-0.239-1.553-0.467-2.335-0.686l53.576,129.389
			C166.78,132.45,166.908,132.222,167.035,131.992z"/>
		<path fill="#E68419" d="M165.497,134.666L109.246,2.308c-0.754-0.174-1.511-0.34-2.272-0.495l58.174,133.438
			C165.267,135.058,165.38,134.861,165.497,134.666z"/>
		<path fill="#E68419" d="M101.04,0.814l62.655,136.736c0.105-0.162,0.213-0.321,0.317-0.483L103.246,1.139
			C102.513,1.021,101.778,0.914,101.04,0.814z"/>
		<path fill="#E68419" d="M95.265,0.229l67.031,139.402c0.095-0.138,0.191-0.273,0.285-0.411L97.407,0.402
			C96.695,0.336,95.981,0.278,95.265,0.229z"/>
		<path fill="#E68419" d="M89.656,0.019l71.299,141.496c0.083-0.114,0.167-0.229,0.25-0.344L91.728,0.054
			C91.039,0.033,90.348,0.022,89.656,0.019z"/>
		<path fill="#E68419" d="M84.211,0.145l75.46,143.082c0.072-0.094,0.144-0.188,0.215-0.281L86.217,0.061
			C85.547,0.082,84.878,0.108,84.211,0.145z"/>
		<path fill="#E68419" d="M78.943,0.588l79.501,144.198c0.061-0.075,0.122-0.15,0.183-0.227L80.876,0.39
			C80.23,0.449,79.585,0.515,78.943,0.588z"/>
		<path fill="#E68419" d="M75.705,1.01c-0.622,0.094-1.241,0.196-1.859,0.303l80.632,140.047l-0.032,0.125l-2.95,10.98
			c1.057-1.04,2.087-2.104,3.091-3.196l1.542-5.532L75.705,1.01z"/>
		<path fill="#E68419" d="M70.716,1.909c-0.598,0.126-1.195,0.254-1.789,0.391l80.842,134.575L149.738,137l-5.431,21.82
			c0.895-0.708,1.774-1.435,2.64-2.177l4.516-17.45L70.716,1.909z"/>
		<path fill="#E68419" d="M65.907,3.062c-0.572,0.154-1.144,0.312-1.711,0.477l80.785,128.997l-0.029,0.126l-7.061,30.793
			c0.793-0.521,1.579-1.053,2.354-1.599l6.47-27.063L65.907,3.062z"/>
		<path fill="#E68419" d="M61.28,4.441c-0.548,0.18-1.093,0.365-1.636,0.556l80.469,123.343l-0.027,0.128l-8.088,38.543
			c0.724-0.398,1.44-0.809,2.151-1.228l7.738-35.244L61.28,4.441z"/>
		<path fill="#E68419" d="M56.838,6.031c-0.523,0.203-1.042,0.413-1.56,0.625l79.894,117.637l-0.023,0.125l-8.648,45.379
			c0.669-0.311,1.334-0.629,1.994-0.956l8.491-42.411L56.838,6.031z"/>
		<path fill="#E68419" d="M52.58,7.813c-0.497,0.224-0.99,0.455-1.482,0.688l79.065,111.891l-0.022,0.129l-8.826,51.489
			c0.626-0.243,1.249-0.495,1.869-0.752l8.83-48.79L52.58,7.813z"/>
		<path fill="#E68419" d="M48.51,9.769c-0.472,0.242-0.938,0.491-1.405,0.741l77.984,106.129l-0.021,0.13l-8.685,56.988
			c0.591-0.189,1.18-0.385,1.765-0.587l8.826-54.516L48.51,9.769z"/>
		<path fill="#E68419" d="M44.627,11.885c-0.446,0.258-0.889,0.521-1.331,0.787l76.656,100.365l-0.018,0.129l-8.271,61.971
			c0.56-0.146,1.119-0.296,1.675-0.453l8.532-59.695L44.627,11.885z"/>
		<path fill="#E68419" d="M40.931,14.142c-0.421,0.271-0.839,0.549-1.256,0.827l75.085,94.617l-0.016,0.129l-7.622,66.485
			c0.536-0.11,1.069-0.229,1.601-0.349l7.986-64.379L40.931,14.142z"/>
		<path fill="#E68419" d="M37.419,16.523c-0.397,0.283-0.79,0.572-1.182,0.862l73.276,88.899l-0.012,0.128l-6.769,70.577
			c0.514-0.079,1.025-0.167,1.536-0.255l7.224-68.628L37.419,16.523z"/>
		<path fill="#E68419" d="M34.091,19.017c-0.373,0.293-0.739,0.593-1.106,0.892l71.234,83.227l-0.012,0.131l-5.735,74.273
			c0.495-0.052,0.988-0.109,1.48-0.169l6.272-72.476L34.091,19.017z"/>
		<path fill="#E68419" d="M30.946,21.609c-0.348,0.301-0.691,0.607-1.035,0.913l68.966,77.614l-0.009,0.131l-4.547,77.607
			c0.478-0.028,0.955-0.056,1.431-0.091l5.157-75.95L30.946,21.609z"/>
		<path fill="#E68419" d="M27.982,24.288c-0.325,0.307-0.646,0.617-0.966,0.929l66.478,72.075l-0.006,0.13l-3.224,80.597
			c0.463-0.007,0.927-0.012,1.389-0.025l3.897-79.069L27.982,24.288z"/>
		<path fill="#E68419" d="M25.196,27.04c-0.302,0.311-0.602,0.622-0.899,0.938L88.072,94.6v0.131l-1.785,83.255
			c0.45,0.014,0.9,0.022,1.352,0.029l2.514-81.847L25.196,27.04z"/>
		<path fill="#E68419" d="M22.583,29.85c-0.279,0.313-0.56,0.624-0.835,0.941L82.62,92.062v0.13l-0.249,85.592
			c0.44,0.032,0.882,0.058,1.323,0.084l1.026-84.303L22.583,29.85z"/>
		<path fill="#E68419" d="M20.143,32.705c-0.258,0.314-0.512,0.632-0.766,0.95l57.76,56.021l0.003,0.128l1.37,87.603
			c0.432,0.051,0.863,0.104,1.297,0.147l-0.551-86.441L20.143,32.705z"/>
		<path fill="#E68419" d="M17.87,35.602c-0.236,0.313-0.467,0.633-0.7,0.95l54.458,50.892l0.005,0.131l3.054,89.296
			c0.425,0.069,0.851,0.138,1.278,0.2l-2.199-88.254L17.87,35.602z"/>
		<path fill="#E68419" d="M15.766,38.528c-0.216,0.313-0.433,0.625-0.645,0.94l50.977,45.897l0.006,0.129l4.787,90.677
			c0.419,0.087,0.841,0.167,1.263,0.249L68.25,86.672L15.766,38.528z"/>
		<path fill="#E68419" d="M13.818,41.471c-0.196,0.31-0.39,0.621-0.582,0.933l47.315,41.036l0.008,0.129l6.549,91.731
			c0.416,0.105,0.834,0.206,1.252,0.306l-5.644-90.924L13.818,41.471z"/>
		<path fill="#E68419" d="M12.027,44.422c-0.177,0.306-0.351,0.613-0.524,0.921l43.485,36.323l8.337,92.581
			c0.416,0.125,0.831,0.252,1.249,0.371l-7.408-91.775L12.027,44.422z"/>
		<path fill="#E68419" d="M10.391,47.377c-0.159,0.299-0.319,0.598-0.475,0.899l39.5,31.769l0.016,0.13l10.098,92.832
			c0.416,0.146,0.831,0.293,1.249,0.433l-9.173-92.281L10.391,47.377z"/>
		<path fill="#E68419" d="M8.895,50.317c-0.142,0.293-0.278,0.59-0.417,0.885l35.36,27.374l0.018,0.13l11.846,92.854
			c0.417,0.169,0.836,0.336,1.257,0.498L46.035,79.625L8.895,50.317z"/>
		<path fill="#E68419" d="M7.549,53.247c-0.126,0.285-0.253,0.57-0.375,0.857L38.259,77.26l0.021,0.131l13.546,92.493
			c0.422,0.194,0.846,0.386,1.272,0.574L40.463,78.242L7.549,53.247z"/>
		<path fill="#E68419" d="M6.331,56.147c-0.111,0.277-0.217,0.558-0.325,0.837l26.675,19.11l0.021,0.128l15.176,91.72
			c0.43,0.225,0.862,0.446,1.296,0.664L34.891,77.012L6.331,56.147z"/>
		<path fill="#E68419" d="M5.249,59.021c-0.096,0.268-0.19,0.537-0.284,0.807l22.145,15.25l0.023,0.129l16.701,90.482
			c0.441,0.261,0.884,0.521,1.331,0.774L29.32,75.931L5.249,59.021z"/>
		<path fill="#E68419" d="M4.288,61.856C4.206,62.114,4.12,62.37,4.04,62.629l17.507,11.584l0.025,0.127l18.083,88.723
			c0.458,0.307,0.917,0.611,1.382,0.909l-17.276-88.97L4.288,61.856z"/>
		<path fill="#E68419" d="M3.44,64.642c-0.07,0.248-0.134,0.499-0.203,0.748l12.759,8.106l0.026,0.127l19.269,86.326
			c0.479,0.364,0.963,0.724,1.451,1.078L18.211,74.219L3.44,64.642z"/>
		<path fill="#E68419" d="M2.713,67.388c-0.059,0.235-0.116,0.473-0.173,0.709l7.922,4.829l0.031,0.125l20.185,83.152
			c0.511,0.444,1.027,0.882,1.548,1.315L12.675,73.587L2.713,67.388z"/>
		<path fill="#E68419" d="M2.088,70.074c-0.049,0.224-0.1,0.446-0.146,0.671l3.01,1.759l0.032,0.125l20.705,78.881
			c0.56,0.568,1.126,1.13,1.701,1.683L7.16,73.102L2.088,70.074z"/>
		<path fill="#E68419" d="M1.559,72.699c-0.272,1.469-0.509,2.949-0.708,4.442l19.243,68.138c0.64,0.783,1.293,1.556,1.958,2.317
			L1.666,72.761L1.559,72.699z"/>
		<path fill="#E68419" d="M0.06,89.022c0,1.11,0.027,2.215,0.068,3.315l13.093,43.279c0.821,1.334,1.678,2.644,2.566,3.93
			L0.118,85.966C0.083,86.981,0.06,87.999,0.06,89.022z"/>
		<path fill="#E68419" d="M5.651,120.126l-2.855-9.13C3.586,114.108,4.542,117.154,5.651,120.126z"/>
	</g>
</g>
</svg>
