<?xml version="1.0" encoding="utf-8"?>
<!-- Generator: Adobe Illustrator 16.0.0, SVG Export Plug-In . SVG Version: 6.00 Build 0)  -->
<!DOCTYPE svg PUBLIC "-//W3C//DTD SVG 1.1//EN" "http://www.w3.org/Graphics/SVG/1.1/DTD/svg11.dtd">
<svg version="1.1" id="SHAPES__x2B__PATTERNS" xmlns="http://www.w3.org/2000/svg" xmlns:xlink="http://www.w3.org/1999/xlink"
	 x="0px" y="0px" width="278.181px" height="278.182px" viewBox="0 0 278.181 278.182" enable-background="new 0 0 278.181 278.182"
	 xml:space="preserve">
<g>
	<path fill="#00756B" d="M139.091,278.182C62.396,278.182,0,215.786,0,139.091C0,62.396,62.396,0,139.091,0
		c76.694,0,139.09,62.396,139.09,139.091C278.181,215.786,215.785,278.182,139.091,278.182z M139.091,1.85
		C63.416,1.85,1.85,63.416,1.85,139.091c0,75.675,61.566,137.241,137.241,137.241s137.24-61.566,137.24-137.241
		C276.331,63.416,214.766,1.85,139.091,1.85z"/>
	<polygon fill="#00756B" points="139.09,131.982 147.299,146.2 130.882,146.2 	"/>
</g>
</svg>
