<?xml version="1.0" encoding="utf-8"?>
<!-- Generator: Adobe Illustrator 16.0.0, SVG Export Plug-In . SVG Version: 6.00 Build 0)  -->
<!DOCTYPE svg PUBLIC "-//W3C//DTD SVG 1.1//EN" "http://www.w3.org/Graphics/SVG/1.1/DTD/svg11.dtd">
<svg version="1.1" xmlns="http://www.w3.org/2000/svg" xmlns:xlink="http://www.w3.org/1999/xlink" x="0px" y="0px" width="350px"
	 height="239px" viewBox="0 0 350 239" enable-background="new 0 0 350 239" xml:space="preserve">
<g id="Layer_1">
	<path fill="#00786B" d="M2.791,2.001v235.013h344.301V2.001H2.791z M345.124,17.605c-8.931-4.452-19.333-8.304-36.739-8.304
		c-7.901,0-14.354,0.793-19.889,2.075c4.339-1.781,8.16-3.817,11.933-5.825c1.004-0.535,2.007-1.056,3.01-1.582h41.686V17.605z
		 M103.177,233.831c2.064,0.479,4.257,0.888,6.605,1.215h-3.824C105.052,234.631,104.132,234.222,103.177,233.831z M5.136,28.131
		c20.811,0,30.937,5.398,41.652,11.114c3.772,2.013,7.592,4.047,11.933,5.827c-5.533-1.282-11.989-2.077-19.891-2.077
		c-15.706,0-25.707,3.136-34.071,7.018V28.134C4.885,28.133,5.009,28.131,5.136,28.131z M4.759,26.15v-8.005
		c2.865,1.34,5.582,2.784,8.334,4.25c3.771,2.015,7.594,4.049,11.933,5.833c-5.533-1.287-11.99-2.082-19.891-2.082
		C5.009,26.147,4.885,26.149,4.759,26.15z M131.959,5.551c1.003-0.535,2.007-1.056,3.01-1.582h77.28
		c1.001,0.526,2.007,1.046,3.01,1.582c2.866,1.528,5.76,3.07,8.888,4.504c8.289,3.801,18.225,6.84,33.696,6.84
		c7.897,0,14.354-0.794,19.889-2.075c-4.341,1.785-8.16,3.819-11.931,5.827c-10.718,5.716-20.842,11.117-41.652,11.117h-0.002
		c-20.809,0-30.932-5.4-41.648-11.117c-10.46-5.578-21.276-11.346-42.583-11.346c-7.901,0-14.356,0.793-19.892,2.077
		C124.364,9.595,128.187,7.559,131.959,5.551z M89.372,14.915c-20.609,0-30.738-5.294-41.343-10.945h82.689
		C120.113,9.621,109.985,14.915,89.372,14.915z M216.503,3.97h82.685c-10.604,5.651-20.731,10.945-41.344,10.945
		c-15.7,0-25.315-3.072-33.696-7.036C221.527,6.642,219.028,5.313,216.503,3.97z M139.916,11.283
		c20.812,0,30.934,5.398,41.65,11.112c3.771,2.015,7.593,4.049,11.931,5.833c-5.531-1.287-11.986-2.082-19.886-2.082
		c-21.306,0-32.124,5.77-42.583,11.349c-10.718,5.715-20.842,11.116-41.655,11.116c-20.809,0-30.933-5.401-41.65-11.116
		c-3.772-2.013-7.593-4.047-11.932-5.828c5.533,1.283,11.989,2.076,19.89,2.076c21.306,0,32.124-5.77,42.586-11.349
		C108.981,16.681,119.103,11.283,139.916,11.283z M257.844,183.387c-15.7,0-25.315-3.074-33.696-7.034
		c-2.727-1.293-5.322-2.679-7.954-4.082c-10.461-5.578-21.277-11.346-42.583-11.346c-7.901,0-14.358,0.792-19.89,2.077
		c4.34-1.78,8.16-3.816,11.932-5.827c10.719-5.718,20.841-11.116,41.652-11.116c6.56,0,12.055,0.535,16.844,1.45
		c10.406,1.986,17.468,5.749,24.807,9.666c10.462,5.576,21.278,11.347,42.581,11.347c7.902,0,14.359-0.793,19.889-2.079
		c-4.338,1.781-8.157,3.816-11.929,5.828C288.777,177.99,278.656,183.387,257.844,183.387z M277.73,183.292
		c-4.339,1.775-8.158,3.814-11.929,5.826c-10.718,5.717-20.842,11.116-41.652,11.116h-0.002c-20.809,0-30.932-5.399-41.648-11.116
		c-10.46-5.577-21.276-11.345-42.583-11.345c-7.901,0-14.356,0.796-19.889,2.076c4.338-1.783,8.16-3.818,11.933-5.829
		c10.715-5.716,20.84-11.115,41.65-11.115c20.81,0,30.934,5.399,41.65,11.115c2.866,1.528,5.76,3.069,8.888,4.503
		c8.289,3.804,18.225,6.842,33.696,6.842C265.741,185.365,272.196,184.573,277.73,183.292z M123.067,166.541
		c-20.812,0-30.934-5.402-41.652-11.116c-10.461-5.58-21.278-11.35-42.585-11.35c-7.899,0-14.354,0.799-19.885,2.077
		c4.339-1.783,8.161-3.817,11.929-5.823c10.718-5.72,20.841-11.117,41.651-11.117c20.811,0,30.933,5.397,41.651,11.117
		c10.462,5.578,21.277,11.346,42.584,11.346c7.902,0,14.359-0.795,19.89-2.08c-4.339,1.782-8.159,3.817-11.932,5.83
		C154.002,161.139,143.879,166.541,123.067,166.541z M291.535,166.541c-20.807,0-30.932-5.402-41.65-11.116
		c-7.269-3.878-14.717-7.845-25.737-9.908c-4.832-0.903-10.348-1.441-16.844-1.441c-7.902,0-14.357,0.799-19.889,2.078
		c4.338-1.784,8.159-3.814,11.931-5.824c7.338-3.916,14.399-7.681,24.802-9.668c4.792-0.91,10.288-1.449,16.852-1.449
		c20.811,0,30.933,5.397,41.65,11.117c10.461,5.578,21.277,11.346,42.582,11.346c7.899,0,14.354-0.795,19.887-2.075
		c-4.339,1.777-8.158,3.813-11.931,5.825C322.472,161.139,312.348,166.541,291.535,166.541z M198.414,138.577
		c-10.721,5.716-20.842,11.113-41.654,11.113s-30.934-5.397-41.651-11.113c-10.46-5.576-21.278-11.347-42.584-11.347
		c-7.9,0-14.355,0.793-19.887,2.076c4.338-1.779,8.16-3.816,11.93-5.829c10.716-5.713,20.839-11.112,41.651-11.112
		c20.81,0,30.934,5.399,41.651,11.112c10.461,5.581,21.278,11.351,42.587,11.351c7.897,0,14.354-0.796,19.89-2.079
		C206.004,134.532,202.187,136.565,198.414,138.577z M190.458,132.844c-20.816,0-30.938-5.397-41.654-11.113
		c-10.462-5.576-21.279-11.348-42.586-11.348c-7.898,0-14.353,0.796-19.883,2.074c4.337-1.775,8.158-3.813,11.928-5.825
		c10.716-5.715,20.839-11.114,41.65-11.114c20.812,0,30.934,5.399,41.653,11.114c10.457,5.578,21.277,11.351,42.582,11.351h0.002
		c7.9,0,14.357-0.793,19.891-2.08c-4.34,1.783-8.159,3.818-11.931,5.828c-2.636,1.406-5.232,2.789-7.962,4.082
		C215.77,129.773,206.153,132.844,190.458,132.844z M224.149,115.998h-0.002c-20.811,0-30.934-5.397-41.65-11.116
		c-3.774-2.011-7.594-4.046-11.937-5.826c5.534,1.281,11.991,2.073,19.897,2.073c15.467,0,25.402-3.036,33.689-6.836
		c3.13-1.437,6.025-2.979,8.894-4.508c10.718-5.72,20.84-11.115,41.65-11.115s30.936,5.396,41.652,11.115
		c3.771,2.009,7.594,4.044,11.932,5.829c-5.533-1.282-11.986-2.082-19.889-2.082c-21.306,0-32.123,5.772-42.585,11.35
		C255.084,110.601,244.962,115.998,224.149,115.998z M274.691,76.689c-21.307,0-32.123,5.769-42.582,11.35
		c-2.636,1.4-5.232,2.786-7.962,4.076c-8.378,3.961-17.994,7.037-33.689,7.037c-20.816,0-30.938-5.399-41.654-11.113
		c-3.773-2.016-7.594-4.052-11.934-5.832c5.533,1.284,11.99,2.076,19.891,2.076c21.308,0,32.125-5.768,42.585-11.347
		c7.338-3.912,14.399-7.675,24.802-9.662c4.792-0.913,10.288-1.453,16.852-1.453c20.811,0,30.933,5.401,41.65,11.114
		c3.771,2.013,7.59,4.048,11.931,5.83C289.047,77.481,282.594,76.689,274.691,76.689z M240.999,59.843
		c-6.497,0-12.018,0.54-16.852,1.44c-11.017,2.062-18.463,6.029-25.733,9.905c-10.721,5.716-20.842,11.115-41.654,11.115
		s-30.934-5.399-41.651-11.115c-3.772-2.012-7.594-4.045-11.934-5.825c5.534,1.28,11.99,2.075,19.892,2.075
		c21.307,0,32.125-5.77,42.585-11.346c10.719-5.716,20.841-11.117,41.652-11.117c6.56,0,12.055,0.535,16.844,1.448
		c10.406,1.986,17.468,5.754,24.807,9.669c3.771,2.007,7.594,4.044,11.93,5.825C255.353,60.636,248.897,59.843,240.999,59.843z
		 M224.147,44.436c-4.832-0.902-10.348-1.441-16.844-1.441c-21.307,0-32.122,5.769-42.585,11.344
		c-10.717,5.718-20.839,11.115-41.652,11.115c-20.812,0-30.934-5.397-41.652-11.115c-3.772-2.008-7.593-4.043-11.935-5.825
		c5.534,1.283,11.991,2.077,19.891,2.077c21.309,0,32.125-5.768,42.588-11.346c10.715-5.716,20.84-11.114,41.65-11.114
		c20.81,0,30.934,5.398,41.65,11.114c2.866,1.523,5.76,3.068,8.888,4.505c0.99,0.451,2.003,0.893,3.045,1.322
		C226.208,44.844,225.193,44.631,224.147,44.436z M38.83,44.976c20.811,0,30.934,5.401,41.652,11.117
		c3.771,2.007,7.593,4.044,11.932,5.825c-5.532-1.282-11.987-2.075-19.889-2.075c-21.307,0-32.124,5.769-42.583,11.346
		c-7.426,3.96-14.575,7.764-25.183,9.729V52.197C13.228,48.146,22.894,44.976,38.83,44.976z M30.874,72.936
		c10.718-5.713,20.841-11.114,41.651-11.114c20.811,0,30.933,5.401,41.651,11.114c3.774,2.013,7.594,4.048,11.931,5.83
		c-5.531-1.284-11.986-2.076-19.89-2.076c-21.305,0-32.121,5.769-42.581,11.35c-10.716,5.714-20.841,11.113-41.65,11.113
		c-6.738,0-12.346-0.57-17.227-1.529V82.907C15.984,80.868,23.521,76.858,30.874,72.936z M21.986,101.129
		c21.305,0,32.122-5.765,42.583-11.344c10.716-5.72,20.839-11.115,41.651-11.115c20.81,0,30.934,5.396,41.651,11.115
		c3.773,2.009,7.596,4.044,11.937,5.829c-5.535-1.28-11.992-2.082-19.895-2.082c-21.306,0-32.123,5.772-42.583,11.35
		c-10.716,5.719-20.839,11.116-41.65,11.116s-30.935-5.397-41.65-11.116c-2.976-1.585-6.001-3.178-9.27-4.658v-0.61
		C9.684,100.561,15.314,101.129,21.986,101.129z M13.095,106.632c10.46,5.578,21.279,11.351,42.583,11.351
		c7.9,0,14.354-0.793,19.888-2.079c-4.339,1.782-8.161,3.817-11.931,5.827c-10.716,5.716-20.841,11.113-41.65,11.113
		c-6.738,0-12.346-0.57-17.227-1.529v-28.936C7.625,103.719,10.342,105.165,13.095,106.632z M21.986,134.828
		c7.899,0,14.353-0.796,19.885-2.078c-4.338,1.782-8.157,3.819-11.929,5.827c-7.426,3.96-14.575,7.763-25.183,9.728v-14.993
		C9.683,134.26,15.317,134.828,21.986,134.828z M8.177,149.6c-1.178,0.482-2.308,0.99-3.418,1.505v-0.81
		C5.934,150.082,7.08,149.854,8.177,149.6z M38.83,146.059c20.811,0,30.934,5.398,41.652,11.116
		c10.461,5.576,21.277,11.347,42.584,11.347c7.901,0,14.36-0.793,19.892-2.08c-4.342,1.782-8.161,3.817-11.933,5.829
		c-10.718,5.72-20.842,11.116-41.655,11.116c-20.809,0-30.933-5.396-41.65-11.116c-10.461-5.578-21.277-11.346-42.585-11.346
		c-0.128,0-0.252,0.003-0.377,0.005v-7.652C13.228,149.227,22.894,146.059,38.83,146.059z M5.136,162.905
		c20.811,0,30.937,5.399,41.652,11.115c10.46,5.578,21.279,11.345,42.583,11.345c7.903,0,14.358-0.792,19.893-2.073
		c-4.341,1.775-8.161,3.814-11.934,5.826c-10.717,5.717-20.838,11.116-41.652,11.116c-20.812,0-30.935-5.399-41.651-11.116
		c-2.98-1.589-5.996-3.189-9.268-4.672v-21.538C4.885,162.907,5.009,162.905,5.136,162.905z M13.094,190.864
		c3.771,2.016,7.592,4.048,11.932,5.832c-5.533-1.284-11.991-2.08-19.89-2.08c-0.127,0-0.251,0.002-0.377,0.003v-8.005
		C7.624,187.954,10.341,189.397,13.094,190.864z M5.136,196.599c20.811,0,30.937,5.397,41.652,11.114
		c3.772,2.016,7.592,4.05,11.933,5.826c-5.534-1.28-11.991-2.071-19.891-2.071c-15.706,0-25.707,3.133-34.071,7.014v-21.88
		C4.885,196.601,5.009,196.599,5.136,196.599z M47.721,205.964c-3.772-2.01-7.593-4.043-11.93-5.824
		c5.53,1.283,11.986,2.076,19.887,2.076c21.306,0,32.124-5.765,42.586-11.352c10.717-5.714,20.838-11.113,41.651-11.113
		c20.812,0,30.934,5.399,41.65,11.113c3.771,2.012,7.593,4.048,11.931,5.832c-5.533-1.284-11.986-2.08-19.886-2.08
		c-21.306,0-32.124,5.771-42.583,11.348c-10.718,5.72-20.842,11.115-41.655,11.115C68.563,217.079,58.438,211.684,47.721,205.964z
		 M89.372,219.064c21.309,0,32.125-5.771,42.588-11.352c10.715-5.717,20.84-11.114,41.65-11.114c20.81,0,30.934,5.397,41.65,11.114
		c2.866,1.528,5.76,3.071,8.888,4.506c0.99,0.453,2.003,0.895,3.045,1.32c-0.986-0.224-1.999-0.437-3.045-0.634
		c-4.832-0.899-10.348-1.438-16.844-1.438c-21.307,0-32.122,5.766-42.585,11.343c-10.717,5.718-20.839,11.12-41.652,11.12
		c-20.812,0-30.934-5.402-41.652-11.12c-3.771-2.009-7.592-4.043-11.934-5.825C75.016,218.267,81.472,219.064,89.372,219.064z
		 M165.652,224.563c10.719-5.72,20.841-11.118,41.652-11.118c6.56,0,12.055,0.54,16.844,1.452
		c10.406,1.983,17.468,5.748,24.807,9.666c3.771,2.007,7.594,4.042,11.93,5.824c-5.531-1.28-11.986-2.076-19.885-2.076
		c-6.497,0-12.018,0.538-16.852,1.442c-6.562,1.228-11.856,3.134-16.604,5.292h-71.205
		C149.375,233.235,157.622,228.844,165.652,224.563z M224.147,231.745c4.792-0.915,10.288-1.452,16.852-1.452
		c12.51,0,21.151,1.956,28.388,4.753h-56.769C216.056,233.717,219.808,232.574,224.147,231.745z M271.65,233.831
		c2.064,0.479,4.257,0.888,6.603,1.215h-3.821C273.525,234.631,272.605,234.222,271.65,233.831z M249.885,222.811
		c-3.771-2.009-7.588-4.043-11.926-5.825c5.533,1.281,11.984,2.079,19.885,2.079c21.308,0,32.123-5.771,42.585-11.352
		c10.715-5.717,20.838-11.114,41.648-11.114c1.046,0,2.055,0.018,3.047,0.045v20.359c-4.331,1.778-8.17,3.798-11.937,5.808
		c-10.716,5.718-20.84,11.12-41.652,11.12C270.729,233.931,260.604,228.528,249.885,222.811z M342.077,194.616
		c-21.307,0-32.121,5.771-42.582,11.348c-10.718,5.72-20.839,11.115-41.651,11.115c-15.7,0-25.315-3.07-33.696-7.035
		c-2.727-1.29-5.322-2.676-7.954-4.08c-3.772-2.01-7.592-4.043-11.931-5.824c5.531,1.283,11.986,2.076,19.885,2.076h0.002
		c21.307,0,32.123-5.765,42.584-11.352c10.716-5.714,20.839-11.113,41.651-11.113c17.633,0,27.59,3.88,36.739,8.54v6.376
		C344.13,194.64,343.125,194.616,342.077,194.616z M308.385,177.773c-7.901,0-14.354,0.796-19.887,2.076
		c4.337-1.783,8.158-3.819,11.931-5.829c10.715-5.716,20.838-11.115,41.648-11.115c1.046,0,2.055,0.02,3.047,0.047v23.125
		C336.193,181.624,325.791,177.773,308.385,177.773z M342.077,160.925c-7.898,0-14.355,0.792-19.885,2.072
		c4.338-1.775,8.157-3.812,11.929-5.822c3.587-1.913,7.125-3.78,11.003-5.431v9.227C344.13,160.943,343.121,160.925,342.077,160.925
		z M325.231,149.69c-20.809,0-30.935-5.397-41.65-11.113c-10.46-5.576-21.275-11.347-42.582-11.347
		c-6.497,0-12.018,0.54-16.852,1.442c-1.044,0.194-2.057,0.407-3.041,0.636c1.042-0.431,2.054-0.87,3.041-1.325v0.001
		c3.13-1.436,6.025-2.975,8.894-4.507c10.718-5.713,20.84-11.112,41.65-11.112s30.936,5.399,41.652,11.112
		c7.917,4.226,16.056,8.549,28.78,10.404v13.697C339.641,148.886,333.232,149.69,325.231,149.69z M317.275,121.73
		c-10.461-5.576-21.275-11.348-42.584-11.348c-7.9,0-14.355,0.796-19.889,2.079c4.338-1.78,8.161-3.818,11.933-5.83
		c10.716-5.715,20.837-11.114,41.651-11.114c17.631,0,27.588,3.877,36.737,8.538v27.84
		C333.019,130.105,325.305,126.011,317.275,121.73z M339.036,99.056c1.908,0.441,3.938,0.817,6.088,1.13v1.662
		C343.181,100.879,341.177,99.934,339.036,99.056z M317.275,88.039c-3.77-2.016-7.591-4.051-11.929-5.832
		c5.529,1.284,11.984,2.076,19.885,2.076c7.909,0,14.355-0.803,19.893-2.088v16.009C333.019,96.414,325.305,92.321,317.275,88.039z
		 M325.231,82.304c-20.809,0-30.935-5.399-41.65-11.115c-3.771-2.012-7.59-4.044-11.931-5.825c5.531,1.28,11.988,2.075,19.885,2.075
		c21.311,0,32.125-5.77,42.586-11.346c3.587-1.914,7.125-3.779,11.003-5.43v29.53C339.641,81.498,333.232,82.304,325.231,82.304z
		 M333.188,54.339c-10.716,5.718-20.84,11.115-41.652,11.115c-20.807,0-30.932-5.397-41.65-11.115
		c-3.771-2.008-7.59-4.043-11.928-5.825c5.533,1.283,11.986,2.077,19.887,2.077c21.308,0,32.123-5.768,42.585-11.346
		c10.715-5.716,20.838-11.114,41.648-11.114c1.046,0,2.055,0.019,3.047,0.045v20.356C340.793,50.311,336.954,52.332,333.188,54.339z
		 M342.077,26.147c-21.307,0-32.121,5.77-42.582,11.349c-10.718,5.715-20.839,11.116-41.651,11.116
		c-15.7,0-25.315-3.074-33.696-7.039c-2.727-1.292-5.322-2.676-7.954-4.078c-3.772-2.013-7.592-4.047-11.931-5.828
		c5.531,1.283,11.986,2.076,19.885,2.076h0.002c21.307,0,32.123-5.77,42.584-11.349c10.716-5.714,20.839-11.112,41.651-11.112
		c17.633,0,27.59,3.877,36.739,8.537v6.378C344.13,26.17,343.125,26.147,342.077,26.147z M43.778,3.97
		c1.002,0.526,2.006,1.046,3.01,1.582c10.46,5.578,21.279,11.345,42.583,11.345c7.903,0,14.359-0.794,19.893-2.075
		c-4.338,1.785-8.161,3.819-11.934,5.827c-10.717,5.716-20.838,11.117-41.652,11.117c-20.812,0-30.935-5.4-41.651-11.117
		c-2.98-1.589-5.996-3.191-9.268-4.673V3.97H43.778z M4.759,220.665c8.468-4.052,18.134-7.22,34.071-7.22
		c20.811,0,30.934,5.398,41.652,11.118c3.771,2.008,7.593,4.044,11.931,5.824c-5.531-1.28-11.987-2.076-19.889-2.076
		c-15.32,0-25.212,2.984-33.453,6.734H4.759V220.665z M100.912,235.046H44.138c7.236-2.797,15.877-4.753,28.387-4.753
		S93.676,232.249,100.912,235.046z M304.81,235.046c13.035-1.811,21.281-6.202,29.312-10.482c3.587-1.915,7.125-3.781,11.003-5.432
		v15.914H304.81z"/>
</g>
<g id="Layer_2">
</g>
</svg>
