<?xml version="1.0" encoding="utf-8"?>
<!-- Generator: Adobe Illustrator 16.0.0, SVG Export Plug-In . SVG Version: 6.00 Build 0)  -->
<!DOCTYPE svg PUBLIC "-//W3C//DTD SVG 1.1//EN" "http://www.w3.org/Graphics/SVG/1.1/DTD/svg11.dtd">
<svg version="1.1" id="Layer_1" xmlns="http://www.w3.org/2000/svg" xmlns:xlink="http://www.w3.org/1999/xlink" x="0px" y="0px"
	 width="290px" height="290px" viewBox="0 0 290 290" enable-background="new 0 0 290 290" xml:space="preserve">
<g>
	<path fill="none" stroke="#E6E6E6" stroke-width="0.5" stroke-miterlimit="10" d="M246.116,145.567
		c0,55.651-45.08,100.764-100.69,100.764c-55.605,0-100.69-45.113-100.69-100.764c0-55.646,45.084-100.763,100.69-100.763
		C201.036,44.804,246.116,89.921,246.116,145.567z"/>
	<path fill="none" stroke="#E6E6E6" stroke-width="0.5" stroke-miterlimit="10" d="M268.741,145.567
		c0,68.157-55.209,123.406-123.315,123.406c-68.1,0-123.315-55.249-123.315-123.406c0-68.15,55.215-123.405,123.315-123.405
		C213.532,22.162,268.741,77.417,268.741,145.567z"/>
	<path fill="none" stroke="#E6E6E6" stroke-width="0.5" stroke-miterlimit="10" d="M285.686,145.567
		c0,77.521-62.796,140.362-140.26,140.362c-77.458,0-140.259-62.841-140.259-140.362c0-77.514,62.802-140.361,140.259-140.361
		C222.89,5.206,285.686,68.053,285.686,145.567z"/>
</g>
<g>
	<circle cx="230.934" cy="92.755" r="1.151"/>
	<circle cx="245.218" cy="132.441" r="1.151"/>
	<circle cx="227.635" cy="53.709" r="1.151"/>
	<circle cx="208.683" cy="39.625" r="1.151"/>
	<circle fill="#E13A32" cx="213.231" cy="22.631" r="2.45"/>
	<circle cx="231.497" cy="34.671" r="1.151"/>
	<circle cx="251.439" cy="53.709" r="1.151"/>
	<circle cx="258.237" cy="62.156" r="1.151"/>
	<circle cx="191.556" cy="31.054" r="1.151"/>
	<circle cx="182.209" cy="27.755" r="1.151"/>
	<circle cx="143.523" cy="22.162" r="1.151"/>
	<circle cx="164.666" cy="6.496" r="1.151"/>
	<circle cx="171.913" cy="7.646" r="1.151"/>
	<circle cx="199.853" cy="16.133" r="1.151"/>
	<circle cx="145.426" cy="5.206" r="1.151"/>
	<circle cx="126.329" cy="23.661" r="1.151"/>
	<circle cx="84.844" cy="38.106" r="1.151"/>
	<circle cx="128.631" cy="6.176" r="1.151"/>
	<circle cx="91.941" cy="60.198" r="1.151"/>
	<circle cx="53.755" cy="39.257" r="1.151"/>
	<circle cx="262.272" cy="106.001" r="1.151"/>
	<circle cx="284.763" cy="129.284" r="1.151"/>
	<circle cx="267.59" cy="162.31" r="1.151"/>
	<circle cx="262.243" cy="185.151" r="1.151"/>
	<circle cx="221.284" cy="211.836" r="1.151"/>
	<circle cx="175.65" cy="241.775" r="1.151"/>
	<circle cx="136.415" cy="268.716" r="1.151"/>
	<circle cx="110.324" cy="263.968" r="1.151"/>
	<circle cx="82.534" cy="251.772" r="1.151"/>
	<circle cx="78.635" cy="268.973" r="1.151"/>
	<circle cx="125.518" cy="284.518" r="1.151"/>
	<circle cx="56.693" cy="231.279" r="1.151"/>
	<circle cx="43.585" cy="242.176" r="1.151"/>
	<circle cx="22.099" cy="212.476" r="1.151"/>
	<circle cx="16.251" cy="200.38" r="1.151"/>
	<circle cx="6.364" cy="164.61" r="1.151"/>
	<circle cx="22.608" cy="134.622" r="1.151"/>
	<circle cx="58.695" cy="94.286" r="1.151"/>
	<circle cx="39.603" cy="82.291" r="1.151"/>
	<circle cx="21.409" cy="79.988" r="1.151"/>
	<circle cx="49.589" cy="176.389" r="1.151"/>
	<circle cx="84.083" cy="225.531" r="1.151"/>
	<circle cx="115.422" cy="241.825" r="1.151"/>
	<circle cx="242.477" cy="221.783" r="1.151"/>
	<circle cx="264.439" cy="219.934" r="1.151"/>
	<circle cx="259.756" cy="226.843" r="1.151"/>
	<circle cx="253.058" cy="235.489" r="1.151"/>
	<circle cx="249.36" cy="239.788" r="1.151"/>
	<circle cx="240.221" cy="248.914" r="1.151"/>
	<circle cx="222.422" cy="242.061" r="1.151"/>
	<circle cx="226.971" cy="259.755" r="1.151"/>
</g>
</svg>
