<?xml version="1.0" encoding="utf-8"?>
<!-- Generator: Adobe Illustrator 16.0.0, SVG Export Plug-In . SVG Version: 6.00 Build 0)  -->
<!DOCTYPE svg PUBLIC "-//W3C//DTD SVG 1.1//EN" "http://www.w3.org/Graphics/SVG/1.1/DTD/svg11.dtd">
<svg version="1.1" id="Layer_1" xmlns="http://www.w3.org/2000/svg" xmlns:xlink="http://www.w3.org/1999/xlink" x="0px" y="0px"
	 width="140px" height="117.299px" viewBox="0 0 140 117.299" enable-background="new 0 0 140 117.299" xml:space="preserve">
<g>
	<polygon fill="#00948A" points="137.229,105.447 133.773,108.521 137.542,108.521 138.944,108.521 138.944,87.906 138.944,78.243 
		137.357,105.332 	"/>
	<polygon fill="#00948A" points="135.233,98.235 135.106,98.353 124.098,108.521 127.635,108.521 135.504,101.387 138.944,31.588 
		138.944,5.45 	"/>
	<polygon fill="#00948A" points="136.015,5.443 134.771,5.443 132.932,91.248 132.806,91.368 114.915,108.521 118.235,108.521 
		133.284,94.359 	"/>
	<polygon fill="#00948A" points="131.884,5.443 130.681,5.443 130.452,84.372 130.331,84.495 106.181,108.521 109.304,108.521 
		130.888,87.442 	"/>
	<polygon fill="#00948A" points="127.837,5.443 126.675,5.443 127.805,77.615 127.685,77.737 97.872,108.521 100.809,108.521 
		128.315,80.64 	"/>
	<polygon fill="#00948A" points="123.87,5.443 122.746,5.443 124.988,70.974 124.871,71.099 89.951,108.521 92.717,108.521 
		125.577,73.954 	"/>
	<polygon fill="#00948A" points="119.979,5.443 118.893,5.443 122.008,64.457 121.893,64.586 82.396,108.521 85.003,108.521 
		122.673,67.391 	"/>
	<polygon fill="#00948A" points="116.161,5.443 115.112,5.443 118.869,58.067 118.756,58.198 75.175,108.521 77.635,108.521 
		119.606,60.954 	"/>
	<polygon fill="#00948A" points="112.412,5.443 111.397,5.443 115.572,51.809 115.461,51.94 68.271,108.521 70.595,108.521 
		116.383,54.646 	"/>
	<polygon fill="#00948A" points="108.729,5.443 107.748,5.443 112.124,45.683 112.017,45.817 61.661,108.521 63.857,108.521 
		113.007,48.469 	"/>
	<polygon fill="#00948A" points="105.109,5.443 104.158,5.443 108.53,39.695 108.424,39.831 55.327,108.521 57.402,108.521 
		109.479,42.428 	"/>
	<polygon fill="#00948A" points="101.547,5.443 100.628,5.443 104.788,33.846 104.686,33.983 49.247,108.521 51.212,108.521 
		105.806,36.525 	"/>
	<polygon fill="#00948A" points="98.043,5.443 97.154,5.443 100.91,28.142 100.809,28.282 43.41,108.521 45.27,108.521 
		101.991,30.764 	"/>
	<polygon fill="#00948A" points="94.591,5.443 93.73,5.443 96.893,22.582 37.796,108.521 39.561,108.521 98.041,25.148 	"/>
	<polygon fill="#00948A" points="91.19,5.443 90.356,5.443 92.748,17.171 92.652,17.314 32.394,108.521 34.066,108.521 
		93.955,19.678 	"/>
	<polygon fill="#00948A" points="87.838,5.443 87.031,5.443 88.475,11.913 88.383,12.059 27.19,108.521 28.777,108.521 
		89.742,14.359 	"/>
	<polygon fill="#00948A" points="84.53,5.443 83.747,5.443 84.078,6.808 83.989,6.955 22.171,108.521 23.679,108.521 85.403,9.195 	
		"/>
	<polygon fill="#00948A" points="77.473,5.443 17.327,108.521 18.76,108.521 80.197,5.443 	"/>
	<polygon fill="#00948A" points="70.259,5.443 12.648,108.521 14.011,108.521 72.882,5.443 	"/>
	<polygon fill="#00948A" points="63.249,5.443 8.122,108.521 9.419,108.521 65.783,5.443 	"/>
	<polygon fill="#00948A" points="56.435,5.443 3.742,108.521 4.977,108.521 58.881,5.443 	"/>
	<polygon fill="#00948A" points="49.802,5.443 1.784,103.837 1.784,106.3 52.167,5.443 	"/>
	<polygon fill="#00948A" points="43.34,5.443 1.784,94.763 1.784,97.442 45.63,5.443 	"/>
	<polygon fill="#00948A" points="37.04,5.443 1.784,85.048 1.784,87.979 39.258,5.443 	"/>
	<polygon fill="#00948A" points="30.892,5.443 1.784,74.603 1.784,77.826 33.042,5.443 	"/>
	<polygon fill="#00948A" points="24.885,5.443 1.784,63.31 1.784,66.879 26.973,5.443 	"/>
	<polygon fill="#00948A" points="19.011,5.443 1.784,51.034 1.784,55.009 21.041,5.443 	"/>
	<polygon fill="#00948A" points="13.264,5.443 1.784,37.616 1.784,42.068 15.237,5.443 	"/>
	<polygon fill="#00948A" points="7.633,5.443 1.784,22.849 1.784,27.877 9.556,5.443 	"/>
	<polygon fill="#00948A" points="2.115,5.443 1.784,6.491 1.784,12.205 3.986,5.443 	"/>
</g>
</svg>
