<?xml version="1.0" encoding="utf-8"?>
<!-- Generator: Adobe Illustrator 16.0.0, SVG Export Plug-In . SVG Version: 6.00 Build 0)  -->
<!DOCTYPE svg PUBLIC "-//W3C//DTD SVG 1.1//EN" "http://www.w3.org/Graphics/SVG/1.1/DTD/svg11.dtd">
<svg version="1.1" id="Layer_1" xmlns="http://www.w3.org/2000/svg" xmlns:xlink="http://www.w3.org/1999/xlink" x="0px" y="0px"
	 width="80px" height="40px" viewBox="0 0 80 40" enable-background="new 0 0 80 40" xml:space="preserve">
<g>
	<polygon fill="#E13A32" points="80.003,38.004 80.003,34.498 75.058,40 78.175,40 	"/>
	<polygon fill="#E13A32" points="80.003,24.697 66.75,40 69.701,40 80.003,28.325 	"/>
	<polygon fill="#E13A32" points="80.003,14.574 58.796,40 61.594,40 80.003,18.339 	"/>
	<polygon fill="#E13A32" points="80.003,6.568 78.02,6.568 51.172,40 53.824,40 80.003,8.015 	"/>
	<polygon fill="#E13A32" points="69.699,6.568 43.856,40 46.374,40 72.716,6.568 	"/>
	<polygon fill="#E13A32" points="61.694,6.568 36.828,40 39.22,40 64.57,6.568 	"/>
	<polygon fill="#E13A32" points="53.984,6.568 30.07,40 32.343,40 56.73,6.568 	"/>
	<polygon fill="#E13A32" points="46.553,6.568 23.563,40 25.727,40 49.177,6.568 	"/>
	<polygon fill="#E13A32" points="39.38,6.568 17.292,40 19.354,40 41.89,6.568 	"/>
	<polygon fill="#E13A32" points="32.452,6.568 11.245,40 13.208,40 34.854,6.568 	"/>
	<polygon fill="#E13A32" points="25.752,6.568 5.404,40 7.279,40 28.054,6.568 	"/>
	<polygon fill="#E13A32" points="19.268,6.568 0,39.588 0,40 1.55,40 21.475,6.568 	"/>
	<polygon fill="#E13A32" points="12.985,6.568 0,29.801 0,33.012 15.104,6.568 	"/>
	<polygon fill="#E13A32" points="6.891,6.568 0,19.453 0,22.895 8.927,6.568 	"/>
	<polygon fill="#E13A32" points="0.977,6.568 0,8.478 0,12.18 2.935,6.568 	"/>
</g>
</svg>
