<?xml version="1.0" encoding="utf-8"?>
<!-- Generator: Adobe Illustrator 16.0.0, SVG Export Plug-In . SVG Version: 6.00 Build 0)  -->
<!DOCTYPE svg PUBLIC "-//W3C//DTD SVG 1.1//EN" "http://www.w3.org/Graphics/SVG/1.1/DTD/svg11.dtd">
<svg version="1.1" id="Layer_1" xmlns="http://www.w3.org/2000/svg" xmlns:xlink="http://www.w3.org/1999/xlink" x="0px" y="0px"
	 width="100px" height="100px" viewBox="0 0 100 100" enable-background="new 0 0 100 100" xml:space="preserve">
<linearGradient id="SVGID_1_" gradientUnits="userSpaceOnUse" x1="6.8262" y1="74.8076" x2="93.3018" y2="24.8809">
	<stop  offset="0" style="stop-color:#F5A368"/>
	<stop  offset="0.293" style="stop-color:#E54E40"/>
	<stop  offset="0.4664" style="stop-color:#E9B787"/>
	<stop  offset="0.7206" style="stop-color:#F5A368"/>
	<stop  offset="1" style="stop-color:#E4403A"/>
</linearGradient>
<path fill="url(#SVGID_1_)" d="M50.064,99.781c-27.536,0-49.938-22.401-49.938-49.938c0-27.535,22.402-49.937,49.938-49.937
	C77.6-0.093,100,22.309,100,49.844C100,77.38,77.6,99.781,50.064,99.781z M50.064,1.155c-26.848,0-48.69,21.842-48.69,48.689
	c0,26.848,21.842,48.69,48.69,48.69c26.846,0,48.688-21.843,48.688-48.69C98.753,22.997,76.91,1.155,50.064,1.155z"/>
</svg>
