<?xml version="1.0" encoding="utf-8"?>
<!-- Generator: Adobe Illustrator 16.0.0, SVG Export Plug-In . SVG Version: 6.00 Build 0)  -->
<!DOCTYPE svg PUBLIC "-//W3C//DTD SVG 1.1//EN" "http://www.w3.org/Graphics/SVG/1.1/DTD/svg11.dtd">
<svg version="1.1" xmlns="http://www.w3.org/2000/svg" xmlns:xlink="http://www.w3.org/1999/xlink" x="0px" y="0px" width="140px"
	 height="100px" viewBox="0 0 140 100" enable-background="new 0 0 140 100" xml:space="preserve">
<g id="Layer_1">
	<g>
		<polygon fill="#D8E0D3" points="140.2,98.5 140.2,98.275 139.978,98.5 		"/>
		<polygon fill="#D8E0D3" points="140.2,13.912 56.26,98.5 56.651,98.5 140.2,15.605 		"/>
		<polygon fill="#D8E0D3" points="140.2,18.064 60.38,98.5 60.771,98.5 140.2,19.694 		"/>
		<polygon fill="#D8E0D3" points="140.2,22.217 64.501,98.5 64.892,98.5 140.2,23.783 		"/>
		<polygon fill="#D8E0D3" points="140.2,26.369 68.621,98.5 69.012,98.5 140.2,27.871 		"/>
		<polygon fill="#D8E0D3" points="140.2,98.275 140.2,96.07 137.752,98.5 139.978,98.5 		"/>
		<polygon fill="#D8E0D3" points="140.2,91.983 133.633,98.5 135.857,98.5 140.2,94.123 		"/>
		<polygon fill="#D8E0D3" points="140.2,87.894 129.512,98.5 131.736,98.5 140.2,89.971 		"/>
		<polygon fill="#D8E0D3" points="140.2,83.805 125.39,98.5 127.616,98.5 140.2,85.818 		"/>
		<polygon fill="#D8E0D3" points="140.2,79.717 121.271,98.5 123.496,98.5 140.2,81.666 		"/>
		<polygon fill="#D8E0D3" points="140.2,75.628 117.149,98.5 119.376,98.5 140.2,77.514 		"/>
		<polygon fill="#D8E0D3" points="140.2,71.54 113.03,98.5 115.256,98.5 140.2,73.359 		"/>
		<polygon fill="#D8E0D3" points="140.2,67.453 108.909,98.5 111.135,98.5 140.2,69.207 		"/>
		<polygon fill="#D8E0D3" points="140.2,63.363 104.79,98.5 107.016,98.5 140.2,65.056 		"/>
		<polygon fill="#D8E0D3" points="140.2,59.274 100.669,98.5 102.896,98.5 140.2,60.903 		"/>
		<polygon fill="#D8E0D3" points="140.2,55.187 96.549,98.5 98.774,98.5 140.2,56.751 		"/>
		<polygon fill="#D8E0D3" points="140.2,51.098 92.428,98.5 94.654,98.5 140.2,52.599 		"/>
		<polygon fill="#D8E0D3" points="140.2,47.01 88.309,98.5 90.534,98.5 140.2,48.445 		"/>
		<polygon fill="#D8E0D3" points="140.2,42.922 84.188,98.5 86.414,98.5 140.2,44.293 		"/>
		<polygon fill="#D8E0D3" points="140.2,38.833 80.06,98.5 82.294,98.5 140.2,40.141 		"/>
		<polygon fill="#D8E0D3" points="140.2,34.746 75.94,98.5 78.165,98.5 140.2,35.988 		"/>
		<polygon fill="#D8E0D3" points="140.2,30.656 71.82,98.5 74.045,98.5 140.2,31.835 		"/>
		<polygon fill="#D8E0D3" points="140.2,9.759 52.14,98.5 52.531,98.5 140.2,11.518 		"/>
		<polygon fill="#D8E0D3" points="58.237,1 0,59.691 0,60.679 60.145,1 		"/>
		<polygon fill="#D8E0D3" points="62.358,1 0,63.846 0,64.768 64.266,1 		"/>
		<polygon fill="#D8E0D3" points="66.479,1 0,67.998 0,68.855 68.386,1 		"/>
		<polygon fill="#D8E0D3" points="70.599,1 0,72.15 0,72.944 72.506,1 		"/>
		<polygon fill="#D8E0D3" points="74.72,1 0,76.303 0,77.032 76.626,1 		"/>
		<polygon fill="#D8E0D3" points="78.838,1 0,80.455 0,81.122 80.748,1 		"/>
		<polygon fill="#D8E0D3" points="82.966,1 0,84.607 0,85.209 84.874,1 		"/>
		<polygon fill="#D8E0D3" points="87.087,1 0,88.76 0,89.299 88.996,1 		"/>
		<polygon fill="#D8E0D3" points="91.208,1 0,92.912 0,93.388 93.115,1 		"/>
		<polygon fill="#D8E0D3" points="95.328,1 0,97.064 0,97.476 97.236,1 		"/>
		<polygon fill="#D8E0D3" points="99.449,1 2.696,98.5 3.087,98.5 101.355,1 		"/>
		<polygon fill="#D8E0D3" points="103.568,1 6.816,98.5 7.207,98.5 105.477,1 		"/>
		<polygon fill="#D8E0D3" points="107.689,1 10.937,98.5 11.328,98.5 109.597,1 		"/>
		<polygon fill="#D8E0D3" points="111.809,1 15.057,98.5 15.448,98.5 113.718,1 		"/>
		<polygon fill="#D8E0D3" points="115.93,1 19.178,98.5 19.568,98.5 117.837,1 		"/>
		<polygon fill="#D8E0D3" points="120.05,1 23.297,98.5 23.688,98.5 121.958,1 		"/>
		<polygon fill="#D8E0D3" points="124.171,1 27.418,98.5 27.809,98.5 126.077,1 		"/>
		<polygon fill="#D8E0D3" points="128.291,1 31.539,98.5 31.929,98.5 130.198,1 		"/>
		<polygon fill="#D8E0D3" points="132.41,1 35.659,98.5 36.05,98.5 134.318,1 		"/>
		<polygon fill="#D8E0D3" points="136.531,1 39.779,98.5 40.17,98.5 138.439,1 		"/>
		<polygon fill="#D8E0D3" points="140.2,1.455 43.9,98.5 44.291,98.5 140.2,3.34 		"/>
		<polygon fill="#D8E0D3" points="140.2,5.608 48.02,98.5 48.411,98.5 140.2,7.429 		"/>
		<polygon fill="#D8E0D3" points="54.712,1 0,55.289 0,56.853 55.421,1 		"/>
		<polygon fill="#D8E0D3" points="50.592,1 0,51.2 0,52.7 51.301,1 		"/>
		<polygon fill="#D8E0D3" points="46.471,1 0,47.111 0,48.549 47.18,1 		"/>
		<polygon fill="#D8E0D3" points="42.352,1 0,43.023 0,44.397 43.06,1 		"/>
		<polygon fill="#D8E0D3" points="38.23,1 0,38.934 0,40.244 38.939,1 		"/>
		<polygon fill="#D8E0D3" points="34.111,1 0,34.846 0,36.092 34.82,1 		"/>
		<polygon fill="#D8E0D3" points="29.991,1 0,30.758 0,31.939 30.699,1 		"/>
		<polygon fill="#D8E0D3" points="25.87,1 0,26.67 0,27.787 26.579,1 		"/>
		<polygon fill="#D8E0D3" points="21.75,1 0,22.582 0,23.635 22.458,1 		"/>
		<polygon fill="#D8E0D3" points="17.629,1 0,18.493 0,19.482 18.338,1 		"/>
		<polygon fill="#D8E0D3" points="13.509,1 0,14.405 0,15.329 14.218,1 		"/>
		<polygon fill="#D8E0D3" points="9.389,1 0,10.316 0,11.177 10.098,1 		"/>
		<polygon fill="#D8E0D3" points="5.269,1 0,6.229 0,7.024 5.978,1 		"/>
		<polygon fill="#D8E0D3" points="1.149,1 0,2.14 0,2.872 1.857,1 		"/>
	</g>
</g>
<g id="Layer_2">
</g>
</svg>
