<?xml version="1.0" encoding="utf-8"?>
<!-- Generator: Adobe Illustrator 16.0.0, SVG Export Plug-In . SVG Version: 6.00 Build 0)  -->
<!DOCTYPE svg PUBLIC "-//W3C//DTD SVG 1.1//EN" "http://www.w3.org/Graphics/SVG/1.1/DTD/svg11.dtd">
<svg version="1.1" id="Layer_1" xmlns="http://www.w3.org/2000/svg" xmlns:xlink="http://www.w3.org/1999/xlink" x="0px" y="0px"
	 width="100px" height="155px" viewBox="0 0 100 155" enable-background="new 0 0 100 155" xml:space="preserve">
<g id="angle_x5F_one_1_">
	<polygon fill="#88BBA9" points="59.815,136.127 52.666,154.63 99.667,154.628 99.667,136.123 	"/>
	<polygon fill="#88BBA9" points="77.295,92.674 69.549,111.179 98.491,111.179 98.491,92.674 	"/>
</g>
<g>
	<path fill="#88BBA9" d="M18.722,136.497V83.753C12.029,94.671,4.455,97.365,0.218,97.959v38.534v13.608V155l52.781-0.001
		l7.149-18.502H18.722z"/>
	<polygon fill="#88BBA9" points="77.628,93.045 55.729,93.045 55.729,61.631 37.224,46.29 37.224,93.044 37.224,106.652 
		37.224,111.549 69.882,111.549 	"/>
</g>
<path fill="#88BBA9" d="M18.723,83.438V17.427L0.219,2.086v95.89C1.806,97.776,11.972,96.028,18.723,83.438z"/>
</svg>
