<?xml version="1.0" encoding="utf-8"?>
<!-- Generator: Adobe Illustrator 16.0.0, SVG Export Plug-In . SVG Version: 6.00 Build 0)  -->
<!DOCTYPE svg PUBLIC "-//W3C//DTD SVG 1.1//EN" "http://www.w3.org/Graphics/SVG/1.1/DTD/svg11.dtd">
<svg version="1.1" xmlns="http://www.w3.org/2000/svg" xmlns:xlink="http://www.w3.org/1999/xlink" x="0px" y="0px" width="100px"
	 height="155px" viewBox="0 0 100 155" enable-background="new 0 0 100 155" xml:space="preserve">
<g id="angle_x5F_three">
	<polygon fill="#88BBA9" points="0.219,2.086 0.219,136.493 0.219,150.102 0.219,155 100,154.998 100,136.493 18.723,136.497 
		18.723,17.427 	"/>
	<polygon fill="#88BBA9" points="37.226,46.29 37.226,93.044 37.224,106.653 37.224,111.549 98.824,111.549 98.824,93.044 
		55.728,93.045 55.729,61.631 	"/>
</g>
<g id="angle_x5F_two">
	<path fill="#88BBA9" d="M18.722,136.497V83.753C12.029,94.671,4.455,97.365,0.218,97.959v38.534v13.608V155l99.781-0.002v-18.505
		L18.722,136.497z"/>
	<polygon fill="#88BBA9" points="37.224,46.29 37.224,93.044 37.224,106.653 37.224,111.549 98.822,111.549 98.822,93.044 
		55.728,93.045 55.728,61.631 	"/>
</g>
<g id="angle_x5F_one">
	<polygon fill="#88BBA9" points="60.148,136.497 52.999,155 100,154.998 100,136.493 	"/>
	<polygon fill="#88BBA9" points="77.628,93.044 69.882,111.549 98.824,111.549 98.824,93.044 	"/>
</g>
</svg>
