<?xml version="1.0" encoding="utf-8"?>
<!-- Generator: Adobe Illustrator 16.0.0, SVG Export Plug-In . SVG Version: 6.00 Build 0)  -->
<!DOCTYPE svg PUBLIC "-//W3C//DTD SVG 1.1//EN" "http://www.w3.org/Graphics/SVG/1.1/DTD/svg11.dtd">
<svg version="1.1" id="Layer_1" xmlns="http://www.w3.org/2000/svg" xmlns:xlink="http://www.w3.org/1999/xlink" x="0px" y="0px"
	 width="320px" height="100px" viewBox="0 0 320 100" enable-background="new 0 0 320 100" xml:space="preserve">
<g>
	<g>
		<g>
			<circle cx="93.509" cy="33.555" r="2.208"/>
			<path d="M88.597,37.078c0.386,0,0.767-0.103,1.102-0.296c0.511-0.295,0.876-0.771,1.028-1.341
				c0.153-0.569,0.075-1.164-0.219-1.675c-0.395-0.681-1.127-1.104-1.915-1.104c-0.385,0-0.766,0.103-1.102,0.297
				c-1.054,0.609-1.416,1.961-0.807,3.015C87.078,36.655,87.81,37.078,88.597,37.078z"/>
			<path d="M87.289,45.586c0.59,0,1.145-0.229,1.561-0.646c0.417-0.416,0.647-0.972,0.646-1.561c0-1.218-0.99-2.208-2.207-2.208
				s-2.207,0.99-2.208,2.208c0,0.589,0.229,1.145,0.646,1.561C86.146,45.357,86.7,45.586,87.289,45.586z"/>
			<path d="M87.448,48.594c0.153-0.569,0.075-1.164-0.22-1.674c-0.394-0.682-1.127-1.104-1.915-1.104
				c-0.385,0-0.766,0.102-1.101,0.294c-1.054,0.61-1.416,1.962-0.808,3.017c0.393,0.682,1.126,1.104,1.913,1.104
				c0.385,0,0.767-0.102,1.103-0.296C86.931,49.639,87.296,49.163,87.448,48.594z"/>
			<path d="M89.665,49.978c-0.336-0.193-0.717-0.296-1.103-0.296c-0.787,0-1.521,0.424-1.913,1.104
				c-0.609,1.054-0.247,2.406,0.807,3.016c0.336,0.194,0.717,0.296,1.102,0.296c0.787,0,1.521-0.423,1.914-1.104
				C91.081,51.939,90.718,50.586,89.665,49.978z"/>
			<path d="M93.474,51c-0.59,0-1.145,0.229-1.561,0.646c-0.417,0.418-0.647,0.973-0.646,1.562c0,1.216,0.99,2.207,2.207,2.208l0,0
				c1.217,0,2.208-0.99,2.208-2.207C95.68,51.991,94.69,51,93.474,51z"/>
			<path d="M98.384,49.683c-0.385,0-0.766,0.104-1.101,0.297c-0.511,0.294-0.876,0.771-1.029,1.341
				c-0.153,0.57-0.074,1.165,0.22,1.675c0.394,0.681,1.127,1.104,1.915,1.104c0.385,0,0.766-0.102,1.101-0.295
				c0.511-0.296,0.876-0.771,1.029-1.342c0.152-0.568,0.074-1.163-0.222-1.675C99.904,50.107,99.171,49.683,98.384,49.683z"/>
			<path d="M101.965,41.176c-1.217,0-2.208,0.99-2.208,2.207s0.99,2.208,2.208,2.208c1.216,0,2.207-0.991,2.208-2.207
				C104.171,42.166,103.181,41.176,101.965,41.176z"/>
			<path d="M99.756,38.452c0,1.216,0.99,2.207,2.208,2.207c1.216,0,2.207-0.99,2.208-2.206c0-1.219-0.991-2.21-2.208-2.21
				C100.748,36.244,99.756,37.234,99.756,38.452z"/>
			<path d="M99.756,48.295c0,1.218,0.99,2.207,2.208,2.207c1.216,0,2.207-0.989,2.208-2.207c0-1.217-0.991-2.207-2.208-2.207
				C100.748,46.089,99.756,47.078,99.756,48.295z"/>
			<path d="M103.42,50.821c-1.217,0.001-2.208,0.991-2.208,2.208s0.99,2.208,2.208,2.208c1.216,0,2.207-0.991,2.208-2.207
				C105.626,51.813,104.637,50.821,103.42,50.821z"/>
			<path d="M97.439,36.361c0.335,0.193,0.716,0.296,1.101,0.296c0.788,0,1.522-0.424,1.915-1.105
				c0.609-1.053,0.247-2.405-0.807-3.015c-0.336-0.194-0.718-0.297-1.104-0.297c-0.787,0-1.519,0.423-1.912,1.104
				C96.023,34.399,96.386,35.753,97.439,36.361z"/>
			<path d="M94.838,43.383c0,1.217,0.989,2.208,2.208,2.208c1.216,0,2.207-0.991,2.208-2.207c-0.001-1.218-0.991-2.208-2.207-2.208
				C95.828,41.176,94.838,42.166,94.838,43.383z"/>
			<circle cx="92.162" cy="43.383" r="2.207"/>
		</g>
		<g>
			<circle cx="245.26" cy="53.275" r="2.208"/>
			<path d="M241.451,50.047c-0.336-0.193-0.717-0.296-1.103-0.296c-0.787,0-1.521,0.423-1.913,1.104
				c-0.608,1.055-0.246,2.407,0.808,3.016c0.336,0.193,0.717,0.297,1.102,0.297h0.001c0.787,0,1.52-0.424,1.913-1.105
				c0.295-0.51,0.373-1.104,0.221-1.674C242.326,50.818,241.962,50.343,241.451,50.047z"/>
			<path d="M236.774,45.657c1.216,0,2.207-0.989,2.207-2.207c0-1.217-0.991-2.207-2.207-2.207c-0.591,0-1.145,0.229-1.562,0.646
				c-0.416,0.417-0.646,0.972-0.646,1.562C234.566,44.668,235.557,45.657,236.774,45.657z"/>
			<path d="M238.981,48.355c0-1.216-0.991-2.206-2.207-2.206c-0.591,0-1.145,0.229-1.562,0.646
				c-0.416,0.418-0.646,0.973-0.646,1.562c0,1.217,0.99,2.207,2.207,2.207h0.001C237.99,50.563,238.981,49.573,238.981,48.355z"/>
			<path d="M236.774,40.734c1.216,0,2.207-0.991,2.207-2.209c0-1.217-0.991-2.207-2.207-2.207c-0.591,0-1.145,0.229-1.562,0.646
				c-0.416,0.417-0.646,0.971-0.646,1.561C234.566,39.743,235.557,40.734,236.774,40.734z"/>
			<path d="M236.774,35.81c1.216,0,2.207-0.991,2.207-2.207c0-1.218-0.991-2.208-2.207-2.208c-0.591,0-1.145,0.229-1.562,0.646
				c-0.416,0.418-0.646,0.973-0.646,1.563C234.566,34.818,235.557,35.81,236.774,35.81z"/>
			<path d="M236.774,30.886c1.216,0,2.207-0.991,2.207-2.209c0-1.217-0.991-2.206-2.207-2.206c-0.591,0-1.145,0.23-1.562,0.646
				c-0.416,0.417-0.646,0.972-0.646,1.561C234.566,29.895,235.557,30.886,236.774,30.886z"/>
			<path d="M246.195,33.827c-1.217,0-2.207,0.99-2.207,2.207s0.99,2.207,2.207,2.207h0.002c1.215-0.001,2.205-0.99,2.205-2.207
				C248.402,34.816,247.412,33.827,246.195,33.827z"/>
			<path d="M241.271,33.827c-1.217,0-2.207,0.99-2.207,2.207s0.99,2.207,2.207,2.207l0,0c1.217-0.001,2.208-0.99,2.208-2.207
				C243.479,34.816,242.488,33.827,241.271,33.827z"/>
			<path d="M232.177,33.827c-1.216,0-2.206,0.99-2.206,2.207s0.99,2.207,2.207,2.207l0,0c1.218-0.001,2.208-0.99,2.208-2.207
				C234.386,34.816,233.395,33.827,232.177,33.827z"/>
		</g>
		<g>
			<path d="M218.102,37.987c0.418,0.416,0.973,0.646,1.562,0.646s1.144-0.229,1.562-0.646c0.416-0.418,0.646-0.973,0.646-1.563
				s-0.229-1.143-0.646-1.56c-0.418-0.418-0.973-0.647-1.563-0.647c-0.589,0-1.143,0.229-1.561,0.647
				c-0.416,0.417-0.646,0.97-0.646,1.56S217.686,37.569,218.102,37.987z"/>
			<path d="M214.906,43.39c0-0.59-0.229-1.144-0.646-1.562c-0.416-0.418-0.972-0.646-1.561-0.646c-0.59,0-1.145,0.229-1.561,0.646
				c-0.418,0.418-0.646,0.972-0.646,1.562c0,0.589,0.229,1.144,0.646,1.561c0.417,0.417,0.971,0.646,1.561,0.646
				s1.145-0.229,1.561-0.646C214.677,44.534,214.906,43.979,214.906,43.39z"/>
			<path d="M214.688,36.013c0.188,0.051,0.38,0.077,0.572,0.077c0.996,0,1.873-0.674,2.131-1.637
				c0.152-0.569,0.074-1.164-0.221-1.675c-0.295-0.512-0.77-0.876-1.34-1.029c-0.188-0.05-0.381-0.075-0.572-0.075
				c-0.997,0-1.873,0.673-2.131,1.637c-0.153,0.57-0.074,1.165,0.221,1.675C213.642,35.496,214.117,35.861,214.688,36.013z"/>
			<path d="M210.17,36.089c0.192,0,0.385-0.026,0.573-0.076c0.569-0.152,1.046-0.519,1.341-1.028s0.373-1.104,0.221-1.675
				c-0.259-0.964-1.135-1.637-2.132-1.637c-0.192,0-0.385,0.025-0.571,0.075c-0.57,0.152-1.047,0.518-1.342,1.03
				c-0.293,0.51-0.373,1.104-0.22,1.673C208.299,35.415,209.174,36.089,210.17,36.089z"/>
			<path d="M205.767,38.631c0.591,0,1.144-0.229,1.562-0.647c0.416-0.417,0.646-0.971,0.646-1.561s-0.23-1.144-0.646-1.561
				c-0.417-0.417-0.971-0.646-1.562-0.646c-0.589,0-1.144,0.229-1.561,0.646s-0.647,0.971-0.647,1.561
				c0.001,0.59,0.23,1.144,0.647,1.561C204.623,38.401,205.178,38.631,205.767,38.631z"/>
			<path d="M207.688,38.343c-0.859,0.861-0.859,2.262,0,3.123c0.418,0.417,0.973,0.646,1.563,0.646c0.588,0,1.143-0.229,1.559-0.646
				c0.861-0.861,0.861-2.262,0.001-3.122c-0.417-0.418-0.972-0.646-1.561-0.646C208.659,37.698,208.105,37.927,207.688,38.343z"/>
			<path d="M216.156,44.604c-0.59,0-1.145,0.23-1.561,0.646c-0.418,0.418-0.647,0.973-0.647,1.563
				c0.001,0.589,0.229,1.144,0.647,1.56c0.416,0.417,0.972,0.647,1.561,0.647c0.59,0,1.145-0.23,1.561-0.647
				c0.418-0.416,0.646-0.971,0.646-1.56c0-0.59-0.229-1.145-0.646-1.561C217.301,44.835,216.746,44.604,216.156,44.604z"/>
			<path d="M207.326,48.758c-0.418-0.416-0.973-0.646-1.563-0.646s-1.145,0.229-1.561,0.646c-0.859,0.86-0.86,2.262,0,3.122
				c0.417,0.418,0.971,0.647,1.561,0.647s1.145-0.229,1.561-0.647C208.186,51.02,208.186,49.619,207.326,48.758z"/>
			<path d="M210.74,50.73c-0.188-0.051-0.38-0.075-0.572-0.075c-0.998,0-1.874,0.672-2.132,1.637
				c-0.314,1.174,0.386,2.388,1.561,2.704c0.188,0.05,0.381,0.074,0.573,0.074c0.996,0,1.873-0.671,2.131-1.635
				C212.615,52.259,211.914,51.046,210.74,50.73z"/>
			<path d="M215.256,50.656c-0.193,0-0.385,0.024-0.572,0.075c-0.569,0.153-1.045,0.519-1.34,1.029s-0.374,1.105-0.222,1.675
				c0.259,0.964,1.136,1.636,2.132,1.636c0.192,0,0.385-0.024,0.572-0.074c1.176-0.315,1.876-1.529,1.561-2.703
				C217.129,51.329,216.252,50.656,215.256,50.656z"/>
			<path d="M219.659,48.115c-0.589,0-1.144,0.229-1.56,0.646c-0.861,0.861-0.861,2.262,0,3.122c0.416,0.417,0.972,0.646,1.561,0.646
				c0.59,0,1.145-0.229,1.561-0.646c0.86-0.861,0.86-2.263,0.001-3.123C220.804,48.344,220.249,48.115,219.659,48.115z"/>
		</g>
		<g>
			<path d="M59.404,37.075c0.386,0,0.768-0.103,1.104-0.297c1.053-0.609,1.414-1.964,0.804-3.017
				c-0.393-0.68-1.125-1.103-1.912-1.103c-0.387,0-0.768,0.103-1.104,0.298c-0.511,0.295-0.875,0.771-1.027,1.342
				c-0.152,0.57-0.073,1.164,0.223,1.675C57.885,36.653,58.618,37.075,59.404,37.075z"/>
			<path d="M63.23,41.48c-1.053,0.609-1.415,1.963-0.804,3.017c0.393,0.679,1.125,1.101,1.912,1.101
				c0.386,0,0.768-0.103,1.104-0.297c1.054-0.61,1.415-1.962,0.805-3.016c-0.394-0.68-1.126-1.103-1.913-1.103
				C63.947,41.183,63.565,41.286,63.23,41.48z"/>
			<path d="M54.708,40.381c0.334,0.192,0.715,0.294,1.1,0.294c0.787,0,1.521-0.423,1.914-1.105c0.294-0.511,0.372-1.106,0.218-1.675
				c-0.153-0.57-0.518-1.046-1.029-1.34c-0.335-0.192-0.715-0.294-1.1-0.294c-0.788,0-1.522,0.423-1.915,1.105
				C53.289,38.42,53.653,39.773,54.708,40.381z"/>
			<path d="M54.5,45.589c1.217-0.001,2.206-0.993,2.204-2.209c-0.001-1.216-0.99-2.205-2.209-2.205c-0.59,0-1.145,0.229-1.56,0.646
				c-0.417,0.419-0.646,0.974-0.646,1.563c0.002,1.215,0.992,2.204,2.208,2.204H54.5z M54.498,45.377L54.498,45.377L54.498,45.377
				L54.498,45.377z"/>
			<path d="M57.951,48.863c0.152-0.57,0.073-1.166-0.223-1.676c-0.394-0.68-1.125-1.102-1.913-1.102
				c-0.386,0-0.768,0.103-1.103,0.297c-1.053,0.609-1.415,1.963-0.805,3.017c0.393,0.68,1.125,1.102,1.911,1.102
				c0.386,0,0.768-0.103,1.104-0.297C57.434,49.908,57.799,49.432,57.951,48.863z"/>
			<path d="M58.974,43.915c-1.054,0.611-1.414,1.964-0.805,3.017c0.393,0.681,1.126,1.103,1.912,1.103
				c0.386,0,0.768-0.103,1.104-0.297c0.51-0.296,0.875-0.772,1.026-1.341c0.152-0.57,0.074-1.165-0.222-1.675
				c-0.394-0.68-1.127-1.103-1.913-1.103C59.691,43.619,59.31,43.722,58.974,43.915z"/>
			<path d="M69.64,42.844c0.511-0.296,0.875-0.772,1.027-1.343c0.152-0.569,0.073-1.163-0.222-1.674
				c-0.394-0.68-1.127-1.103-1.913-1.103c-0.386,0-0.768,0.103-1.104,0.297c-1.053,0.61-1.414,1.963-0.805,3.018
				c0.394,0.679,1.126,1.102,1.912,1.102C68.921,43.141,69.304,43.038,69.64,42.844z"/>
			<path d="M60.52,49.974c-0.334-0.192-0.715-0.295-1.1-0.295c-0.788,0-1.522,0.425-1.914,1.106
				c-0.607,1.055-0.243,2.407,0.811,3.016c0.335,0.192,0.715,0.295,1.1,0.295c0.788,0,1.521-0.425,1.914-1.106
				C61.938,51.934,61.574,50.581,60.52,49.974z"/>
			<path d="M64.33,50.99c-0.59,0.002-1.144,0.231-1.56,0.649c-0.417,0.417-0.646,0.973-0.646,1.562
				c0.002,1.216,0.992,2.205,2.208,2.205h0.001c0.59,0,1.144-0.23,1.561-0.649c0.417-0.417,0.645-0.971,0.645-1.561
				C66.537,51.98,65.547,50.99,64.33,50.99z M64.333,55.194L64.333,55.194L64.333,55.194L64.333,55.194z"/>
			<path d="M69.242,49.669c-0.387,0-0.769,0.103-1.104,0.298c-1.054,0.61-1.415,1.964-0.805,3.018
				c0.394,0.679,1.127,1.102,1.914,1.102c0.385,0,0.767-0.103,1.103-0.298c1.053-0.609,1.415-1.963,0.805-3.017
				C70.76,50.092,70.027,49.669,69.242,49.669z"/>
			<path d="M73.939,46.365c-0.335-0.192-0.716-0.295-1.101-0.295c-0.788,0-1.521,0.424-1.914,1.105
				c-0.294,0.511-0.372,1.105-0.219,1.676c0.154,0.57,0.519,1.046,1.03,1.339c0.334,0.192,0.714,0.295,1.1,0.295
				c0.788,0,1.521-0.424,1.915-1.105C75.357,48.325,74.993,46.973,73.939,46.365z"/>
			<path d="M70.696,37.883c-0.152,0.57-0.074,1.165,0.221,1.676c0.394,0.679,1.126,1.101,1.914,1.101
				c0.386,0,0.768-0.102,1.103-0.296c1.053-0.61,1.415-1.963,0.805-3.019c-0.394-0.678-1.126-1.102-1.911-1.102
				c-0.387,0-0.769,0.104-1.105,0.298C71.212,36.836,70.848,37.313,70.696,37.883z"/>
			<path d="M68.126,36.772c0.334,0.192,0.714,0.293,1.099,0.293c0.789,0,1.523-0.424,1.917-1.105
				c0.607-1.055,0.243-2.406-0.811-3.015c-0.336-0.193-0.717-0.295-1.101-0.295c-0.788,0-1.521,0.425-1.914,1.105
				C66.708,34.812,67.072,36.165,68.126,36.772z"/>
			<path d="M64.314,35.754h0.001c1.217-0.001,2.207-0.992,2.206-2.21c-0.001-1.216-0.992-2.205-2.209-2.205
				c-1.218,0.001-2.207,0.993-2.205,2.209C62.108,34.766,63.099,35.754,64.314,35.754z M64.314,35.542L64.314,35.542L64.314,35.542
				L64.314,35.542z"/>
		</g>
		<g>
			<path d="M178.785,37.075c0.387,0,0.768-0.104,1.104-0.298c0.51-0.295,0.875-0.772,1.027-1.342s0.072-1.164-0.223-1.675
				c-0.394-0.68-1.126-1.103-1.912-1.103c-0.386,0-0.768,0.103-1.104,0.297c-0.511,0.296-0.875,0.772-1.027,1.343
				c-0.151,0.569-0.073,1.164,0.223,1.674C177.266,36.652,177.999,37.075,178.785,37.075z"/>
			<path d="M183.713,41.183c-0.386,0-0.768,0.104-1.103,0.298c-1.054,0.609-1.415,1.963-0.806,3.016
				c0.393,0.68,1.126,1.102,1.912,1.102c0.387,0,0.768-0.103,1.104-0.297c0.511-0.296,0.875-0.771,1.027-1.341
				c0.152-0.569,0.073-1.164-0.223-1.674C185.232,41.605,184.5,41.183,183.713,41.183z"/>
			<path d="M174.087,40.379c0.336,0.192,0.716,0.294,1.101,0.294c0.787,0,1.521-0.423,1.914-1.105
				c0.295-0.51,0.372-1.105,0.219-1.676c-0.152-0.568-0.519-1.044-1.029-1.338c-0.334-0.193-0.715-0.295-1.1-0.295
				c-0.788,0-1.521,0.424-1.914,1.105c-0.295,0.511-0.373,1.105-0.219,1.675C173.211,39.608,173.576,40.084,174.087,40.379z"/>
			<path d="M173.879,45.587c0.59-0.001,1.144-0.23,1.561-0.646c0.416-0.417,0.645-0.973,0.644-1.562
				c-0.001-1.217-0.989-2.206-2.208-2.206c-0.59,0-1.145,0.229-1.561,0.646c-0.417,0.419-0.646,0.973-0.646,1.563
				c0.001,1.216,0.992,2.205,2.208,2.205H173.879z M173.877,45.375L173.877,45.375L173.877,45.375L173.877,45.375z"/>
			<path d="M177.33,48.86c0.152-0.569,0.072-1.164-0.223-1.674c-0.395-0.68-1.127-1.102-1.914-1.102
				c-0.385,0-0.767,0.102-1.102,0.296c-1.055,0.609-1.416,1.963-0.807,3.017c0.394,0.68,1.127,1.103,1.913,1.103
				c0.386,0,0.768-0.103,1.104-0.297C176.813,49.907,177.178,49.431,177.33,48.86z"/>
			<path d="M178.354,43.915c-1.053,0.61-1.414,1.962-0.806,3.017c0.394,0.68,1.126,1.102,1.911,1.102
				c0.387,0,0.77-0.103,1.104-0.297c0.511-0.296,0.876-0.771,1.028-1.341s0.073-1.164-0.223-1.674
				c-0.393-0.681-1.127-1.104-1.912-1.104C179.07,43.618,178.689,43.722,178.354,43.915z"/>
			<path d="M189.02,42.845c0.511-0.296,0.875-0.772,1.027-1.342c0.152-0.568,0.073-1.164-0.222-1.675
				c-0.394-0.68-1.127-1.103-1.913-1.103c-0.387,0-0.768,0.103-1.103,0.297c-1.054,0.609-1.415,1.963-0.806,3.017
				c0.393,0.68,1.125,1.103,1.912,1.103C188.302,43.142,188.684,43.039,189.02,42.845z"/>
			<path d="M179.898,49.974c-0.336-0.193-0.716-0.296-1.102-0.296c-0.787,0-1.521,0.425-1.914,1.105
				c-0.294,0.512-0.371,1.106-0.219,1.675c0.153,0.57,0.52,1.046,1.03,1.34c0.335,0.194,0.716,0.297,1.101,0.297
				c0.787,0,1.521-0.425,1.914-1.106C181.315,51.934,180.952,50.58,179.898,49.974z"/>
			<path d="M183.709,50.99c-0.59,0.002-1.145,0.231-1.561,0.649c-0.418,0.417-0.646,0.973-0.646,1.561
				c0.002,1.217,0.992,2.206,2.209,2.206l0,0c0.591,0,1.145-0.229,1.562-0.647c0.416-0.418,0.646-0.972,0.646-1.562
				C185.916,51.98,184.926,50.99,183.709,50.99z"/>
			<path d="M188.619,49.671c-0.385,0-0.768,0.102-1.103,0.297c-1.054,0.609-1.415,1.963-0.806,3.017
				c0.395,0.68,1.127,1.103,1.913,1.103c0.386,0,0.767-0.103,1.103-0.297c1.055-0.61,1.416-1.964,0.807-3.018
				C190.139,50.094,189.405,49.671,188.619,49.671z"/>
			<path d="M193.318,46.367c-0.336-0.192-0.717-0.296-1.102-0.296c-0.787,0-1.521,0.424-1.914,1.105
				c-0.294,0.511-0.371,1.106-0.219,1.676c0.153,0.57,0.519,1.046,1.029,1.34c0.336,0.192,0.715,0.294,1.1,0.294
				c0.788,0,1.521-0.423,1.916-1.104C194.736,48.327,194.373,46.975,193.318,46.367z"/>
			<path d="M190.076,37.884c-0.152,0.57-0.074,1.165,0.221,1.675c0.395,0.681,1.127,1.103,1.914,1.103
				c0.386,0,0.768-0.103,1.103-0.297c1.054-0.609,1.415-1.962,0.807-3.017c-0.394-0.679-1.127-1.103-1.913-1.103
				c-0.385,0-0.768,0.103-1.104,0.298C190.594,36.837,190.229,37.314,190.076,37.884z"/>
			<path d="M187.508,36.773c0.334,0.192,0.715,0.294,1.099,0.294c0.789,0,1.522-0.425,1.916-1.105
				c0.607-1.055,0.243-2.407-0.812-3.016c-0.335-0.193-0.715-0.295-1.1-0.295c-0.788,0-1.521,0.424-1.914,1.105
				C186.09,34.812,186.453,36.165,187.508,36.773z"/>
			<path d="M183.695,35.754h0.002c1.217-0.001,2.207-0.991,2.206-2.21c-0.001-1.216-0.992-2.205-2.21-2.205
				c-1.217,0.001-2.206,0.993-2.205,2.209C181.49,34.766,182.48,35.754,183.695,35.754z M183.695,35.542L183.695,35.542
				L183.695,35.542L183.695,35.542z"/>
		</g>
		<g>
			<circle cx="126.53" cy="33.546" r="2.207"/>
			<path d="M122.011,33.767c-0.385,0-0.766,0.102-1.102,0.296c-1.054,0.608-1.416,1.961-0.808,3.016
				c0.394,0.681,1.126,1.104,1.913,1.104c0.385,0,0.767-0.103,1.103-0.297c0.51-0.294,0.875-0.771,1.027-1.34
				c0.153-0.568,0.075-1.163-0.22-1.675C123.532,34.188,122.799,33.767,122.011,33.767z"/>
			<path d="M117.54,41.163c-1.217,0-2.207,0.991-2.207,2.207c0,0.59,0.229,1.144,0.646,1.563c0.417,0.416,0.972,0.646,1.561,0.646
				c0.59,0,1.144-0.229,1.561-0.646c0.417-0.419,0.646-0.973,0.646-1.563C119.748,42.154,118.757,41.163,117.54,41.163z"/>
			<path d="M117.54,36.258c-1.216,0-2.207,0.988-2.207,2.207c0,0.59,0.229,1.144,0.646,1.56c0.417,0.418,0.972,0.646,1.561,0.646
				c0.59,0,1.144-0.229,1.561-0.646c0.417-0.416,0.646-0.97,0.646-1.56C119.748,37.247,118.757,36.258,117.54,36.258z"/>
			<path d="M117.54,31.35c-1.217,0-2.207,0.991-2.207,2.208c0,0.59,0.229,1.145,0.646,1.562c0.417,0.416,0.972,0.646,1.561,0.646
				c0.59,0,1.144-0.23,1.561-0.646c0.417-0.417,0.646-0.972,0.646-1.562C119.748,32.341,118.757,31.35,117.54,31.35z"/>
			<path d="M117.54,46.087c-1.217,0-2.207,0.99-2.207,2.207c0,0.59,0.229,1.145,0.646,1.562c0.417,0.416,0.972,0.646,1.561,0.646
				c0.59,0,1.144-0.23,1.561-0.646c0.417-0.417,0.646-0.972,0.646-1.561C119.748,47.077,118.757,46.087,117.54,46.087z"/>
			<path d="M117.54,51.013c-1.217,0-2.207,0.989-2.207,2.206c0,0.591,0.229,1.144,0.646,1.562c0.417,0.416,0.972,0.646,1.561,0.646
				c0.59,0,1.144-0.229,1.561-0.646c0.417-0.418,0.646-0.971,0.646-1.561C119.748,52.002,118.757,51.013,117.54,51.013z"/>
			<path d="M132.124,34.065c-0.336-0.195-0.718-0.297-1.104-0.297c-0.786,0-1.519,0.422-1.912,1.103
				c-0.608,1.055-0.246,2.408,0.807,3.016c0.335,0.195,0.716,0.297,1.101,0.297c0.788,0,1.521-0.423,1.915-1.104
				C133.539,36.026,133.177,34.674,132.124,34.065z"/>
		</g>
		<g>
			<path d="M152.701,31.339c-1.217,0-2.208,0.99-2.208,2.207c0,1.218,0.99,2.207,2.208,2.207c1.216,0,2.207-0.989,2.207-2.207
				C154.908,32.329,153.917,31.339,152.701,31.339z"/>
			<path d="M148.104,33.767c-0.385,0-0.767,0.102-1.102,0.296c-1.054,0.608-1.416,1.961-0.809,3.016
				c0.394,0.681,1.127,1.104,1.914,1.104c0.385,0,0.767-0.103,1.102-0.297c0.511-0.294,0.876-0.771,1.028-1.34
				c0.153-0.568,0.075-1.163-0.22-1.675C149.624,34.188,148.89,33.767,148.104,33.767z"/>
			<path d="M144.705,36.546c-0.335-0.192-0.716-0.296-1.102-0.296c-0.787,0-1.521,0.424-1.914,1.105
				c-0.295,0.51-0.373,1.104-0.221,1.673c0.152,0.57,0.518,1.046,1.029,1.342c0.335,0.193,0.716,0.296,1.102,0.296
				c0.787,0,1.52-0.423,1.913-1.104c0.295-0.51,0.374-1.104,0.221-1.676C145.581,37.317,145.216,36.84,144.705,36.546z"/>
			<path d="M159.297,39.565c0.393,0.681,1.127,1.104,1.916,1.104c0.385,0,0.766-0.103,1.101-0.296
				c1.054-0.609,1.417-1.962,0.808-3.015c-0.393-0.682-1.125-1.105-1.912-1.105c-0.386,0-0.767,0.104-1.103,0.296
				C159.052,37.158,158.689,38.511,159.297,39.565z"/>
			<path d="M144.705,41.471c-0.335-0.193-0.716-0.297-1.102-0.297c-0.787,0-1.521,0.424-1.914,1.104
				c-0.295,0.511-0.373,1.105-0.221,1.675c0.152,0.57,0.518,1.045,1.029,1.34c0.335,0.194,0.716,0.297,1.102,0.297
				c0.787,0,1.52-0.423,1.913-1.104c0.295-0.51,0.374-1.104,0.221-1.676C145.581,42.242,145.216,41.765,144.705,41.471z"/>
			<path d="M144.705,31.611c-0.335-0.193-0.716-0.296-1.102-0.296c-0.787,0-1.521,0.423-1.914,1.104
				c-0.295,0.51-0.373,1.104-0.221,1.674c0.152,0.57,0.518,1.045,1.029,1.341c0.335,0.193,0.716,0.295,1.102,0.295
				c0.787,0,1.52-0.422,1.913-1.104c0.295-0.51,0.374-1.104,0.221-1.676C145.581,32.383,145.216,31.905,144.705,31.611z"/>
			<path d="M161.209,41.177c-0.386,0-0.767,0.104-1.103,0.297c-1.055,0.608-1.417,1.962-0.809,3.016
				c0.393,0.681,1.127,1.104,1.916,1.104c0.385,0,0.766-0.103,1.101-0.297c1.054-0.607,1.417-1.959,0.808-3.014
				C162.729,41.601,161.996,41.177,161.209,41.177z"/>
			<path d="M144.705,46.394c-0.335-0.193-0.716-0.296-1.102-0.296c-0.787,0-1.521,0.424-1.914,1.104
				c-0.295,0.511-0.373,1.105-0.221,1.675s0.518,1.046,1.029,1.341c0.335,0.194,0.716,0.297,1.102,0.297
				c0.787,0,1.52-0.425,1.913-1.104c0.295-0.512,0.374-1.105,0.221-1.675C145.581,47.165,145.216,46.689,144.705,46.394z"/>
			<path d="M161.209,46.101c-0.386,0-0.767,0.103-1.103,0.298c-1.055,0.607-1.417,1.96-0.809,3.016
				c0.393,0.68,1.127,1.104,1.916,1.104c0.385,0,0.766-0.104,1.101-0.297c1.054-0.607,1.417-1.961,0.808-3.015
				C162.729,46.524,161.996,46.101,161.209,46.101z"/>
			<path d="M144.705,51.318c-0.335-0.193-0.716-0.295-1.102-0.295c-0.787,0-1.521,0.422-1.914,1.104
				c-0.295,0.51-0.373,1.104-0.221,1.676c0.152,0.567,0.518,1.044,1.029,1.339c0.335,0.194,0.716,0.296,1.102,0.296
				c0.787,0,1.52-0.423,1.913-1.104c0.295-0.511,0.374-1.105,0.221-1.675S145.216,51.614,144.705,51.318z"/>
			<path d="M161.209,51.026c-0.386,0-0.767,0.102-1.103,0.296c-1.055,0.608-1.417,1.961-0.809,3.015
				c0.393,0.681,1.127,1.104,1.916,1.104c0.385,0,0.766-0.102,1.101-0.296c1.054-0.607,1.417-1.96,0.808-3.015
				C162.729,51.448,161.996,51.026,161.209,51.026z"/>
			<path d="M159.525,35.968c0.608-1.054,0.247-2.406-0.808-3.016c-0.336-0.194-0.718-0.297-1.103-0.297
				c-0.786,0-1.519,0.424-1.912,1.104c-0.608,1.056-0.246,2.409,0.807,3.017c0.335,0.193,0.716,0.297,1.102,0.297
				C158.398,37.072,159.132,36.647,159.525,35.968z"/>
		</g>
		<g>
			<path d="M163.146,66.395l-0.078-0.001c-0.86,0-1.535,0.388-2.018,0.906v-0.405c0-0.213-0.172-0.384-0.384-0.384h-0.37
				c-0.212,0-0.383,0.171-0.383,0.384v5.814c0,0.213,0.171,0.385,0.383,0.385h0.37c0.212,0,0.384-0.172,0.384-0.385v-2.757
				c0-1.158,0.775-2.407,2.026-2.407h0.058c0.213,0,0.385-0.172,0.385-0.385v-0.381C163.52,66.571,163.354,66.399,163.146,66.395z"
				/>
			<path d="M182.71,69.189c-0.984-0.277-1.484-0.489-1.484-0.911c0-0.438,0.508-0.756,1.208-0.756c0.539,0,1.146,0.201,1.623,0.54
				c0.084,0.06,0.189,0.082,0.292,0.064c0.103-0.02,0.192-0.079,0.251-0.166l0.207-0.31c0.117-0.176,0.07-0.413-0.104-0.532
				c-0.657-0.446-1.502-0.713-2.259-0.713c-1.372,0-2.368,0.802-2.368,1.932c0,1.289,1.273,1.655,2.303,1.95
				c1.024,0.279,1.481,0.482,1.481,0.967c0,0.473-0.548,0.827-1.276,0.827c-0.66,0-1.346-0.253-1.932-0.713
				c-0.082-0.063-0.186-0.092-0.287-0.08c-0.103,0.015-0.194,0.067-0.258,0.148l-0.219,0.29c-0.125,0.162-0.098,0.396,0.06,0.527
				c0.706,0.59,1.683,0.943,2.612,0.943c1.419,0,2.449-0.832,2.449-2.001C185.01,69.814,183.623,69.438,182.71,69.189z"/>
			<path d="M217.014,66.395l-0.078-0.001c-0.86,0-1.535,0.388-2.018,0.906v-0.405c0-0.213-0.172-0.384-0.385-0.384h-0.369
				c-0.213,0-0.385,0.171-0.385,0.384v5.814c0,0.213,0.172,0.385,0.385,0.385h0.369c0.213,0,0.385-0.172,0.385-0.385v-2.757
				c0-1.158,0.775-2.407,2.025-2.407h0.059c0.213,0,0.385-0.172,0.385-0.385v-0.381C217.387,66.571,217.222,66.399,217.014,66.395z"
				/>
			<path d="M227.824,71.173c-0.158-0.138-0.398-0.123-0.539,0.033c-0.558,0.622-1.131,0.911-1.803,0.911
				c-1.219,0-2.211-1.039-2.211-2.339c0-1.285,0.961-2.292,2.188-2.292c0.671,0,1.223,0.269,1.785,0.871
				c0.071,0.076,0.171,0.12,0.274,0.121c0.095-0.003,0.204-0.038,0.278-0.112l0.266-0.266c0.148-0.147,0.15-0.388,0.005-0.538
				c-0.532-0.554-1.31-1.19-2.597-1.19c-1.852,0-3.359,1.532-3.359,3.442c0,1.884,1.502,3.418,3.348,3.418
				c1.051,0,1.924-0.42,2.67-1.288c0.137-0.16,0.119-0.401-0.04-0.541L227.824,71.173z"/>
			<path d="M236.882,66.372c-0.788,0-1.407,0.294-1.854,0.697v-2.782c0-0.213-0.172-0.384-0.383-0.384h-0.37
				c-0.212,0-0.384,0.171-0.384,0.384v8.422c0,0.213,0.172,0.385,0.384,0.385h0.37c0.211,0,0.383-0.172,0.383-0.385v-3.275
				c0-1.11,0.777-1.947,1.809-1.947c1.075,0,1.692,0.685,1.692,1.877v3.346c0,0.213,0.171,0.385,0.384,0.385h0.369
				c0.213,0,0.385-0.172,0.385-0.385v-3.403C239.666,67.524,238.573,66.372,236.882,66.372z"/>
			<path d="M204.854,66.432c-0.635,0-1.232,0.126-1.88,0.398c-0.097,0.038-0.172,0.116-0.21,0.213
				c-0.038,0.098-0.035,0.206,0.009,0.301l0.144,0.315c0.087,0.189,0.309,0.276,0.502,0.193c0.49-0.209,0.939-0.306,1.413-0.306
				c1.021,0,1.573,0.414,1.675,1.268c-0.441-0.003-1.154-0.007-1.675-0.007c-1.796,0-2.957,0.884-2.957,2.276
				c0,1.42,1.302,2.161,2.588,2.161c0.89,0,1.574-0.28,2.062-0.666v0.144c0,0.212,0.171,0.385,0.384,0.385h0.369
				c0.213,0,0.385-0.173,0.385-0.385v-3.624c0-0.791-0.237-1.455-0.69-1.921C206.477,66.682,205.764,66.432,204.854,66.432z
				 M204.484,72.131c-0.668,0-1.449-0.281-1.449-1.092c0-0.822,0.922-1.116,1.784-1.116c0.563,0,1.282,0.004,1.716,0.006v0.647
				C206.535,71.433,205.615,72.131,204.484,72.131z"/>
			<path d="M171.525,66.363c-1.804,0-3.164,1.467-3.164,3.43c0,1.956,1.406,3.432,3.268,3.432c0.758,0,1.438-0.233,2.023-0.688
				c0.166-0.128,0.197-0.368,0.07-0.534l-0.217-0.285c-0.061-0.082-0.153-0.136-0.256-0.15c-0.1-0.013-0.205,0.015-0.285,0.077
				c-0.4,0.31-0.845,0.466-1.324,0.466c-1.057,0-1.861-0.72-2.061-1.792h4.611c0.213,0,0.385-0.172,0.385-0.384v-0.128
				C174.576,68.095,173.529,66.363,171.525,66.363z M169.582,69.214c0.201-1.027,0.961-1.735,1.92-1.735
				c1.088,0,1.689,0.818,1.855,1.735H169.582z"/>
			<path d="M193.521,66.363c-1.805,0-3.166,1.467-3.166,3.43c0,1.956,1.405,3.432,3.27,3.432c0.756,0,1.436-0.233,2.021-0.688
				c0.166-0.128,0.197-0.368,0.07-0.534l-0.216-0.285c-0.062-0.082-0.154-0.136-0.256-0.15c-0.103-0.013-0.205,0.015-0.286,0.077
				c-0.398,0.31-0.844,0.466-1.322,0.466c-1.058,0-1.861-0.72-2.063-1.792h4.611c0.213,0,0.385-0.172,0.385-0.384v-0.128
				C196.57,68.095,195.523,66.363,193.521,66.363z M191.577,69.214c0.2-1.027,0.96-1.735,1.921-1.735
				c1.087,0,1.688,0.818,1.855,1.735H191.577z"/>
		</g>
	</g>
	<g>
		<path d="M254.602,29.698l-0.598-0.774c0.34-0.113,0.545-0.376,0.545-0.723c0-0.189-0.076-0.375-0.209-0.506
			c-0.166-0.166-0.42-0.258-0.717-0.258h-0.928c-0.076,0-0.137,0.062-0.137,0.137v2.209c0,0.075,0.061,0.136,0.137,0.136h0.164
			c0.074,0,0.137-0.061,0.137-0.136v-0.778h0.518l0.662,0.86c0.027,0.035,0.066,0.054,0.107,0.054h0.209
			c0.053,0,0.1-0.029,0.123-0.077C254.639,29.796,254.633,29.739,254.602,29.698z M252.996,27.862h0.617
			c0.148,0,0.496,0.035,0.496,0.353c0,0.271-0.262,0.367-0.506,0.367h-0.607V27.862z"/>
		<path d="M253.57,30.909c-1.232,0-2.232-1.001-2.232-2.232c0-1.23,1-2.231,2.232-2.231c1.23,0,2.23,1.001,2.23,2.231
			C255.801,29.908,254.801,30.909,253.57,30.909z M253.57,26.832c-1.018,0-1.846,0.828-1.846,1.845c0,1.018,0.828,1.845,1.846,1.845
			c1.016,0,1.844-0.827,1.844-1.845C255.414,27.66,254.586,26.832,253.57,26.832z"/>
	</g>
</g>
</svg>
