<?xml version="1.0" encoding="utf-8"?>
<!-- Generator: Adobe Illustrator 16.0.0, SVG Export Plug-In . SVG Version: 6.00 Build 0)  -->
<!DOCTYPE svg PUBLIC "-//W3C//DTD SVG 1.1//EN" "http://www.w3.org/Graphics/SVG/1.1/DTD/svg11.dtd">
<svg version="1.1" xmlns="http://www.w3.org/2000/svg" xmlns:xlink="http://www.w3.org/1999/xlink" x="0px" y="0px"
	 width="1330.373px" height="101px" viewBox="0 0 1330.373 101" enable-background="new 0 0 1330.373 101" xml:space="preserve">
<g id="Layer_3">
	<g id="Layer_4" opacity="0.4">
		<rect x="2.984" y="2.169" fill="#E54C00" width="1323.984" height="97.462"/>
	</g>
</g>
<g id="Layer_2">
	
		<linearGradient id="line_x5F_8_1_" gradientUnits="userSpaceOnUse" x1="945.2676" y1="-826.645" x2="1429.5662" y2="-134.9951" gradientTransform="matrix(1 0 0 -1 -256 -244)">
		<stop  offset="0" style="stop-color:#68BFB9"/>
		<stop  offset="0.1875" style="stop-color:#A6D6CC"/>
		<stop  offset="0.4227" style="stop-color:#B2DBD5"/>
		<stop  offset="0.5366" style="stop-color:#68BFB9"/>
		<stop  offset="0.6111" style="stop-color:#00948A"/>
		<stop  offset="0.7154" style="stop-color:#68BFB9"/>
		<stop  offset="0.8052" style="stop-color:#A6D6CC"/>
		<stop  offset="0.8886" style="stop-color:#B7DCD1"/>
		<stop  offset="0.9658" style="stop-color:#3EACA1"/>
	</linearGradient>
	<path id="line_x5F_8" fill="url(#line_x5F_8_1_)" d="M814.653,53.122h374.188v26.616c0.469-0.047,0.937-0.092,1.4-0.139V53.122
		h116.443v-1.787H814.653V53.122z"/>
	<linearGradient id="line_x5F_7_1_" gradientUnits="userSpaceOnUse" x1="815.6064" y1="-412.583" x2="1179.5509" y2="107.1835">
		<stop  offset="0" style="stop-color:#68BFB9"/>
		<stop  offset="0.1875" style="stop-color:#A6D6CC"/>
		<stop  offset="0.4227" style="stop-color:#B2DBD5"/>
		<stop  offset="0.5366" style="stop-color:#68BFB9"/>
		<stop  offset="0.6111" style="stop-color:#00948A"/>
		<stop  offset="0.7154" style="stop-color:#68BFB9"/>
		<stop  offset="0.8052" style="stop-color:#A6D6CC"/>
		<stop  offset="0.8886" style="stop-color:#B7DCD1"/>
		<stop  offset="0.9658" style="stop-color:#3EACA1"/>
	</linearGradient>
	<path id="line_x5F_7" fill="url(#line_x5F_7_1_)" d="M886.163,3.844h439.407v0.115h1.397V2.055H886.51
		C886.438,2.663,886.315,3.259,886.163,3.844z"/>
	<linearGradient id="line_x5F_6_2_" gradientUnits="userSpaceOnUse" x1="1233.7139" y1="182.8271" x2="1349.3287" y2="17.712">
		<stop  offset="0" style="stop-color:#68BFB9"/>
		<stop  offset="0.1875" style="stop-color:#A6D6CC"/>
		<stop  offset="0.4227" style="stop-color:#B2DBD5"/>
		<stop  offset="0.5366" style="stop-color:#68BFB9"/>
		<stop  offset="0.6111" style="stop-color:#00948A"/>
		<stop  offset="0.7154" style="stop-color:#68BFB9"/>
		<stop  offset="0.8052" style="stop-color:#A6D6CC"/>
		<stop  offset="0.8886" style="stop-color:#B7DCD1"/>
		<stop  offset="0.9658" style="stop-color:#3EACA1"/>
	</linearGradient>
	<polygon id="line_x5F_6_1_" fill="url(#line_x5F_6_2_)" points="1325.373,3.844 1325.57,3.844 1325.57,97.729 1325.373,97.729 
		1325.373,99.518 1326.968,99.518 1326.968,2.055 1325.373,2.055 	"/>
	<linearGradient id="line_x5F_5_1_" gradientUnits="userSpaceOnUse" x1="816.1426" y1="-316.7876" x2="1179.7991" y2="202.5676">
		<stop  offset="0" style="stop-color:#68BFB9"/>
		<stop  offset="0.1875" style="stop-color:#A6D6CC"/>
		<stop  offset="0.4227" style="stop-color:#B2DBD5"/>
		<stop  offset="0.5366" style="stop-color:#68BFB9"/>
		<stop  offset="0.6111" style="stop-color:#00948A"/>
		<stop  offset="0.7154" style="stop-color:#68BFB9"/>
		<stop  offset="0.8052" style="stop-color:#A6D6CC"/>
		<stop  offset="0.8886" style="stop-color:#B7DCD1"/>
		<stop  offset="0.9658" style="stop-color:#3EACA1"/>
	</linearGradient>
	<path id="line_x5F_5" fill="url(#line_x5F_5_1_)" d="M1325.57,97.32v0.408H886.695c0.062,0.514,0.097,1.031,0.097,1.561
		c0,0.078-0.012,0.15-0.014,0.229h440.189V97.32H1325.57z"/>
	
		<linearGradient id="line_x5F_4_1_" gradientUnits="userSpaceOnUse" x1="556.2002" y1="-550.9233" x2="1040.5826" y2="140.8464" gradientTransform="matrix(1 0 0 -1 -256 -244)">
		<stop  offset="0" style="stop-color:#68BFB9"/>
		<stop  offset="0.1875" style="stop-color:#A6D6CC"/>
		<stop  offset="0.4227" style="stop-color:#B2DBD5"/>
		<stop  offset="0.5366" style="stop-color:#68BFB9"/>
		<stop  offset="0.6111" style="stop-color:#00948A"/>
		<stop  offset="0.7154" style="stop-color:#68BFB9"/>
		<stop  offset="0.8052" style="stop-color:#A6D6CC"/>
		<stop  offset="0.8886" style="stop-color:#B7DCD1"/>
		<stop  offset="0.9658" style="stop-color:#3EACA1"/>
	</linearGradient>
	<path id="line_x5F_4" fill="url(#line_x5F_4_1_)" d="M887.217,99.596c-0.139-0.595-0.229-1.191-0.294-1.789H5.504V97.32
		c-0.167,0.063-0.336,0.117-0.505,0.177c0.032,0.362,0.055,0.731,0.055,1.104c0,0.336-0.031,0.664-0.055,0.992h882.218V99.596z"/>
	
		<linearGradient id="line_x5F_3_1_" gradientUnits="userSpaceOnUse" x1="236.7798" y1="-328.0835" x2="687.3979" y2="315.4658" gradientTransform="matrix(1 0 0 -1 -256 -244)">
		<stop  offset="0" style="stop-color:#68BFB9"/>
		<stop  offset="0.1875" style="stop-color:#A6D6CC"/>
		<stop  offset="0.4227" style="stop-color:#B2DBD5"/>
		<stop  offset="0.5366" style="stop-color:#68BFB9"/>
		<stop  offset="0.6111" style="stop-color:#00948A"/>
		<stop  offset="0.7154" style="stop-color:#68BFB9"/>
		<stop  offset="0.8052" style="stop-color:#A6D6CC"/>
		<stop  offset="0.8886" style="stop-color:#B7DCD1"/>
		<stop  offset="0.9658" style="stop-color:#3EACA1"/>
	</linearGradient>
	<path id="line_x5F_3" fill="url(#line_x5F_3_1_)" d="M5.239,97.842H4.385V3.958h0.121c0-0.596,0.031-1.194,0.104-1.789H2.984
		v97.462h2.063C5.071,99.025,5.137,98.43,5.239,97.842z"/>
	
		<linearGradient id="line_x5F_2_1_" gradientUnits="userSpaceOnUse" x1="412.2661" y1="-458.1406" x2="896.4404" y2="233.332" gradientTransform="matrix(1 0 0 -1 -256 -244)">
		<stop  offset="0" style="stop-color:#68BFB9"/>
		<stop  offset="0.1875" style="stop-color:#A6D6CC"/>
		<stop  offset="0.4227" style="stop-color:#B2DBD5"/>
		<stop  offset="0.5366" style="stop-color:#68BFB9"/>
		<stop  offset="0.6111" style="stop-color:#00948A"/>
		<stop  offset="0.7154" style="stop-color:#68BFB9"/>
		<stop  offset="0.8052" style="stop-color:#A6D6CC"/>
		<stop  offset="0.8886" style="stop-color:#B7DCD1"/>
		<stop  offset="0.9658" style="stop-color:#3EACA1"/>
	</linearGradient>
	<path id="line_x5F_2" fill="url(#line_x5F_2_1_)" d="M604.933,3.236c0-0.321,0.03-0.635,0.053-0.952h-602v3.664
		c0.487,0.269,0.952,0.569,1.401,0.89V4.074h600.591C604.962,3.795,604.933,3.519,604.933,3.236z"/>
	
		<linearGradient id="line_x5F_1_1_" gradientUnits="userSpaceOnUse" x1="709.1279" y1="-664.9878" x2="1193.2863" y2="26.4622" gradientTransform="matrix(1 0 0 -1 -256 -244)">
		<stop  offset="0" style="stop-color:#68BFB9"/>
		<stop  offset="0.1875" style="stop-color:#A6D6CC"/>
		<stop  offset="0.4227" style="stop-color:#B2DBD5"/>
		<stop  offset="0.5366" style="stop-color:#68BFB9"/>
		<stop  offset="0.6111" style="stop-color:#00948A"/>
		<stop  offset="0.7154" style="stop-color:#68BFB9"/>
		<stop  offset="0.8052" style="stop-color:#A6D6CC"/>
		<stop  offset="0.8886" style="stop-color:#B7DCD1"/>
		<stop  offset="0.9658" style="stop-color:#3EACA1"/>
	</linearGradient>
	<path id="line_x5F_1" fill="url(#line_x5F_1_1_)" d="M886.757,3.922c0-0.593,0.052-1.176,0.128-1.753H604.766
		c0.086,0.597,0.121,1.194,0.131,1.79h281.861C886.759,3.947,886.757,3.935,886.757,3.922z"/>
</g>
</svg>
