<?xml version="1.0" encoding="utf-8"?>
<!-- Generator: Adobe Illustrator 16.0.0, SVG Export Plug-In . SVG Version: 6.00 Build 0)  -->
<!DOCTYPE svg PUBLIC "-//W3C//DTD SVG 1.1//EN" "http://www.w3.org/Graphics/SVG/1.1/DTD/svg11.dtd">
<svg version="1.1" id="Layer_1" xmlns="http://www.w3.org/2000/svg" xmlns:xlink="http://www.w3.org/1999/xlink" x="0px" y="0px"
	 width="106px" height="604.875px" viewBox="0 0 106 604.875" enable-background="new 0 0 106 604.875" xml:space="preserve">
<path fill="#2E8783" d="M73.659,599.553c-0.268-0.399-26.768-40.584-31.845-85.771c-0.35-3.118-0.54-6.393-0.567-9.735
	c1.377-0.181,2.449-1.35,2.449-2.777c0-1.396-1.021-2.548-2.354-2.769c0.938-22.319,8.38-46.146,15.58-69.191
	c2.622-8.389,5.329-17.06,7.624-25.383c0.165,0.029,0.331,0.05,0.505,0.05c1.552,0,2.814-1.263,2.814-2.814
	c0-1.222-0.786-2.253-1.876-2.642c2.793-10.852,4.478-20.077,5.146-28.19c2.451-29.773-1.519-44.646-6.546-63.478
	c-2.301-8.62-4.908-18.39-7.12-30.731c-0.373-2.082-0.699-4.209-0.979-6.331c1.232-0.299,2.153-1.404,2.153-2.728
	c0-1.536-1.237-2.784-2.767-2.81c-2.184-23.591,1.548-46.807,5.159-69.261c1.622-10.087,3.3-20.517,4.44-30.92
	c0.692-6.322,0.995-12.027,0.929-17.434c1.418-0.145,2.532-1.332,2.532-2.787c0-1.527-1.224-2.768-2.742-2.808
	c-1.484-23.047-10.072-40.3-31.66-63.614c-0.879-0.95-1.796-1.929-2.738-2.934C20.871,62.834,7.272,48.323,7.85,32.398
	c0.293-8.086,5.467-13.691,10.511-18.061c0.509,0.509,1.212,0.824,1.987,0.824c1.552,0,2.815-1.263,2.815-2.814
	c0-1.552-1.263-2.815-2.815-2.815c-1.552,0-2.815,1.263-2.815,2.815c0,0.567,0.171,1.093,0.461,1.535
	C13.138,18.09,7.578,24.028,7.275,32.378C6.69,48.541,20.379,63.149,31.38,74.886c0.94,1.004,1.856,1.982,2.735,2.931
	c21.489,23.208,30.035,40.365,31.509,63.268c-1.314,0.237-2.316,1.384-2.316,2.764c0,1.453,1.11,2.637,2.524,2.785
	c0.065,5.386-0.236,11.072-0.927,17.374c-1.139,10.388-2.814,20.811-4.435,30.891c-3.617,22.487-7.354,45.739-5.166,69.401
	c-1.303,0.247-2.291,1.39-2.291,2.761c0,1.552,1.263,2.815,2.815,2.815c0.032,0,0.061-0.009,0.092-0.01
	c0.28,2.13,0.609,4.266,0.983,6.354c2.215,12.366,4.826,22.147,7.131,30.779c5.012,18.776,8.971,33.607,6.527,63.282
	c-0.666,8.083-2.346,17.279-5.132,28.102c-0.125-0.018-0.25-0.038-0.38-0.038c-1.552,0-2.814,1.264-2.814,2.815
	c0,1.177,0.729,2.187,1.759,2.604c-2.293,8.317-5,16.985-7.621,25.372c-7.21,23.077-14.662,46.937-15.605,69.326
	c-1.499,0.062-2.702,1.291-2.702,2.805c0,1.48,1.153,2.684,2.605,2.793c0.029,3.357,0.221,6.649,0.573,9.783
	c5.091,45.324,31.669,85.625,31.937,86.027c0.055,0.083,0.146,0.128,0.238,0.128c0.055,0,0.11-0.016,0.159-0.048
	C73.711,599.863,73.746,599.686,73.659,599.553z M20.348,10.106c1.236,0,2.241,1.005,2.241,2.241s-1.005,2.241-2.241,2.241
	c-1.235,0-2.241-1.005-2.241-2.241S19.112,10.106,20.348,10.106z M63.881,143.849c0-1.235,1.006-2.241,2.242-2.241
	c1.235,0,2.239,1.005,2.239,2.241s-1.004,2.241-2.239,2.241C64.887,146.09,63.881,145.084,63.881,143.849z M55.829,269.302
	c-1.235,0-2.241-1.005-2.241-2.241c0-1.235,1.006-2.241,2.241-2.241s2.24,1.006,2.24,2.241
	C58.069,268.297,57.064,269.302,55.829,269.302z M62.81,401.161c0-1.236,1.006-2.242,2.241-2.242c1.236,0,2.24,1.006,2.24,2.242
	s-1.004,2.24-2.24,2.24C63.815,403.401,62.81,402.397,62.81,401.161z M40.882,503.51c-1.236,0-2.242-1.006-2.242-2.241
	c0-1.236,1.005-2.241,2.242-2.241c1.235,0,2.24,1.005,2.24,2.241C43.122,502.504,42.117,503.51,40.882,503.51z"/>
<circle fill="none" stroke="#2BB673" stroke-width="0.8" stroke-miterlimit="10" cx="20.318" cy="12.295" r="2.571"/>
<circle fill="none" stroke="#2BB673" stroke-width="0.8" stroke-miterlimit="10" cx="66.021" cy="144" r="2.571"/>
<circle fill="none" stroke="#2BB673" stroke-width="0.8" stroke-miterlimit="10" cx="55.835" cy="267.096" r="2.571"/>
<circle fill="none" stroke="#2BB673" stroke-width="0.8" stroke-miterlimit="10" cx="65.144" cy="401.181" r="2.571"/>
<circle fill="none" stroke="#2BB673" stroke-width="0.8" stroke-miterlimit="10" cx="40.796" cy="501.208" r="2.571"/>
<circle fill="none" stroke="#2BB673" stroke-width="0.8" stroke-miterlimit="10" cx="75.218" cy="601.712" r="2.571"/>
<g>
	<circle fill="#FFFFFF" stroke="#02948A" stroke-width="0.6" stroke-miterlimit="10" cx="22.889" cy="12.514" r="7.998"/>
	<circle fill="#FFFFFF" stroke="#CCCCCC" stroke-width="0.6" stroke-miterlimit="10" cx="22.889" cy="12.513" r="5.995"/>
	<polygon fill="#02948A" points="20.82,14.432 20.78,12.397 22.844,14.625 	"/>
	<circle fill="none" stroke="#87BAA9" stroke-width="0.3" stroke-miterlimit="10" cx="22.889" cy="12.514" r="11.514"/>
</g>
</svg>
